<svg width="323" height="119" viewBox="0 0 323 119" fill="none" xmlns="http://www.w3.org/2000/svg">
<path d="M60.0462 31V19.3636H64.4098C65.3037 19.3636 66.0537 19.5303 66.6598 19.8636C67.2697 20.197 67.7299 20.6553 68.0405 21.2386C68.3549 21.8182 68.5121 22.4773 68.5121 23.2159C68.5121 23.9621 68.3549 24.625 68.0405 25.2045C67.7261 25.7841 67.2621 26.2405 66.6484 26.5739C66.0348 26.9034 65.2791 27.0682 64.3814 27.0682H61.4893V25.3352H64.0973C64.62 25.3352 65.0481 25.2443 65.3814 25.0625C65.7147 24.8807 65.9609 24.6307 66.12 24.3125C66.2829 23.9943 66.3643 23.6288 66.3643 23.2159C66.3643 22.803 66.2829 22.4394 66.12 22.125C65.9609 21.8106 65.7128 21.5663 65.3757 21.392C65.0424 21.214 64.6125 21.125 64.0859 21.125H62.1541V31H60.0462ZM72.6072 31.1761C72.0542 31.1761 71.5561 31.0777 71.1129 30.8807C70.6735 30.6799 70.325 30.3845 70.0675 29.9943C69.8137 29.6042 69.6868 29.1231 69.6868 28.5511C69.6868 28.0587 69.7777 27.6515 69.9595 27.3295C70.1413 27.0076 70.3894 26.75 70.7038 26.5568C71.0182 26.3636 71.3724 26.2178 71.7663 26.1193C72.1641 26.017 72.575 25.9432 72.9993 25.8977C73.5107 25.8447 73.9254 25.7973 74.2436 25.7557C74.5618 25.7102 74.7929 25.642 74.9368 25.5511C75.0845 25.4564 75.1584 25.3106 75.1584 25.1136V25.0795C75.1584 24.6515 75.0315 24.3201 74.7777 24.0852C74.5239 23.8504 74.1584 23.733 73.6811 23.733C73.1773 23.733 72.7777 23.8428 72.4822 24.0625C72.1906 24.2822 71.9936 24.5417 71.8913 24.8409L69.9709 24.5682C70.1224 24.0379 70.3724 23.5947 70.7209 23.2386C71.0694 22.8788 71.4955 22.6098 71.9993 22.4318C72.5031 22.25 73.0599 22.1591 73.6697 22.1591C74.0902 22.1591 74.5088 22.2083 74.9254 22.3068C75.3421 22.4053 75.7228 22.5682 76.0675 22.7955C76.4122 23.0189 76.6887 23.3239 76.897 23.7102C77.1091 24.0966 77.2152 24.5795 77.2152 25.1591V31H75.2379V29.8011H75.1697C75.0447 30.0436 74.8686 30.2708 74.6413 30.483C74.4179 30.6913 74.1357 30.8598 73.7947 30.9886C73.4576 31.1136 73.0618 31.1761 72.6072 31.1761ZM73.1413 29.6648C73.5542 29.6648 73.9122 29.5833 74.2152 29.4205C74.5182 29.2538 74.7512 29.0341 74.9141 28.7614C75.0807 28.4886 75.1641 28.1913 75.1641 27.8693V26.8409C75.0997 26.8939 74.9898 26.9432 74.8345 26.9886C74.683 27.0341 74.5125 27.0739 74.3232 27.108C74.1338 27.142 73.9463 27.1723 73.7607 27.1989C73.575 27.2254 73.4141 27.2481 73.2777 27.267C72.9709 27.3087 72.6963 27.3769 72.4538 27.4716C72.2114 27.5663 72.0201 27.6989 71.88 27.8693C71.7398 28.036 71.6697 28.2519 71.6697 28.517C71.6697 28.8958 71.808 29.1818 72.0845 29.375C72.361 29.5682 72.7133 29.6648 73.1413 29.6648ZM79.2834 31V22.2727H81.2777V23.7273H81.3686C81.5277 23.2235 81.8004 22.8352 82.1868 22.5625C82.5769 22.286 83.022 22.1477 83.522 22.1477C83.6357 22.1477 83.7625 22.1534 83.9027 22.1648C84.0466 22.1723 84.166 22.1856 84.2607 22.2045V24.0966C84.1735 24.0663 84.0353 24.0398 83.8459 24.017C83.6603 23.9905 83.4804 23.9773 83.3061 23.9773C82.9311 23.9773 82.594 24.0587 82.2947 24.2216C81.9993 24.3807 81.7663 24.6023 81.5959 24.8864C81.4254 25.1705 81.3402 25.4981 81.3402 25.8693V31H79.2834ZM89.0746 31.1705C88.2034 31.1705 87.4553 30.9792 86.8303 30.5966C86.209 30.214 85.7299 29.6856 85.3928 29.0114C85.0594 28.3333 84.8928 27.553 84.8928 26.6705C84.8928 25.7841 85.0632 25.0019 85.4041 24.3239C85.745 23.642 86.2261 23.1117 86.8473 22.733C87.4723 22.3504 88.2109 22.1591 89.0632 22.1591C89.7715 22.1591 90.3984 22.2898 90.9439 22.5511C91.4931 22.8087 91.9306 23.1742 92.2564 23.6477C92.5821 24.1174 92.7678 24.6667 92.8132 25.2955H90.8473C90.7678 24.875 90.5784 24.5246 90.2791 24.2443C89.9837 23.9602 89.5878 23.8182 89.0916 23.8182C88.6712 23.8182 88.3018 23.9318 87.9837 24.1591C87.6655 24.3826 87.4174 24.7045 87.2393 25.125C87.0651 25.5455 86.978 26.0492 86.978 26.6364C86.978 27.2311 87.0651 27.7424 87.2393 28.1705C87.4136 28.5947 87.6579 28.9223 87.9723 29.1534C88.2905 29.3807 88.6636 29.4943 89.0916 29.4943C89.3946 29.4943 89.6655 29.4375 89.9041 29.3239C90.1465 29.2064 90.3492 29.0379 90.5121 28.8182C90.675 28.5985 90.7867 28.3314 90.8473 28.017H92.8132C92.764 28.6345 92.5821 29.1818 92.2678 29.6591C91.9534 30.1326 91.5253 30.5038 90.9837 30.7727C90.442 31.0379 89.8056 31.1705 89.0746 31.1705ZM98.3658 31.1705C97.4908 31.1705 96.7351 30.9886 96.0987 30.625C95.4661 30.2576 94.9794 29.7386 94.6385 29.0682C94.2976 28.3939 94.1271 27.6004 94.1271 26.6875C94.1271 25.7898 94.2976 25.0019 94.6385 24.3239C94.9832 23.642 95.4643 23.1117 96.0817 22.733C96.6991 22.3504 97.4245 22.1591 98.2578 22.1591C98.7957 22.1591 99.3033 22.2462 99.7805 22.4205C100.262 22.5909 100.686 22.8561 101.053 23.2159C101.424 23.5758 101.716 24.0341 101.928 24.5909C102.14 25.1439 102.246 25.803 102.246 26.5682V27.1989H95.093V25.8125H100.275C100.271 25.4186 100.186 25.0682 100.019 24.7614C99.8525 24.4508 99.6196 24.2064 99.3203 24.0284C99.0249 23.8504 98.6802 23.7614 98.2862 23.7614C97.8658 23.7614 97.4964 23.8636 97.1783 24.0682C96.8601 24.2689 96.612 24.5341 96.4339 24.8636C96.2597 25.1894 96.1707 25.5473 96.1669 25.9375V27.1477C96.1669 27.6553 96.2597 28.0909 96.4453 28.4545C96.6309 28.8144 96.8904 29.0909 97.2237 29.2841C97.5571 29.4735 97.9472 29.5682 98.3942 29.5682C98.6934 29.5682 98.9643 29.5265 99.2067 29.4432C99.4491 29.3561 99.6593 29.2292 99.8374 29.0625C100.015 28.8958 100.15 28.6894 100.241 28.4432L102.161 28.6591C102.04 29.1667 101.809 29.6098 101.468 29.9886C101.131 30.3636 100.699 30.6553 100.173 30.8636C99.6461 31.0682 99.0438 31.1705 98.3658 31.1705ZM103.987 31V22.2727H106.043V31H103.987ZM105.021 21.0341C104.695 21.0341 104.415 20.9261 104.18 20.7102C103.945 20.4905 103.827 20.2273 103.827 19.9205C103.827 19.6098 103.945 19.3466 104.18 19.1307C104.415 18.911 104.695 18.8011 105.021 18.8011C105.35 18.8011 105.63 18.911 105.862 19.1307C106.096 19.3466 106.214 19.6098 106.214 19.9205C106.214 20.2273 106.096 20.4905 105.862 20.7102C105.63 20.9261 105.35 21.0341 105.021 21.0341ZM108.158 31V22.2727H110.153V23.7273H110.244C110.403 23.2235 110.675 22.8352 111.062 22.5625C111.452 22.286 111.897 22.1477 112.397 22.1477C112.511 22.1477 112.638 22.1534 112.778 22.1648C112.922 22.1723 113.041 22.1856 113.136 22.2045V24.0966C113.049 24.0663 112.91 24.0398 112.721 24.017C112.535 23.9905 112.355 23.9773 112.181 23.9773C111.806 23.9773 111.469 24.0587 111.17 24.2216C110.874 24.3807 110.641 24.6023 110.471 24.8864C110.3 25.1705 110.215 25.4981 110.215 25.8693V31H108.158ZM117.95 31.1705C117.097 31.1705 116.359 30.983 115.734 30.608C115.109 30.233 114.624 29.7083 114.279 29.0341C113.938 28.3598 113.768 27.572 113.768 26.6705C113.768 25.7689 113.938 24.9792 114.279 24.3011C114.624 23.6231 115.109 23.0966 115.734 22.7216C116.359 22.3466 117.097 22.1591 117.95 22.1591C118.802 22.1591 119.54 22.3466 120.165 22.7216C120.79 23.0966 121.273 23.6231 121.614 24.3011C121.959 24.9792 122.131 25.7689 122.131 26.6705C122.131 27.572 121.959 28.3598 121.614 29.0341C121.273 29.7083 120.79 30.233 120.165 30.608C119.54 30.983 118.802 31.1705 117.95 31.1705ZM117.961 29.5227C118.423 29.5227 118.809 29.3958 119.12 29.142C119.431 28.8845 119.662 28.5398 119.813 28.108C119.969 27.6761 120.046 27.1951 120.046 26.6648C120.046 26.1307 119.969 25.6477 119.813 25.2159C119.662 24.7803 119.431 24.4337 119.12 24.1761C118.809 23.9186 118.423 23.7898 117.961 23.7898C117.487 23.7898 117.094 23.9186 116.779 24.1761C116.469 24.4337 116.236 24.7803 116.08 25.2159C115.929 25.6477 115.853 26.1307 115.853 26.6648C115.853 27.1951 115.929 27.6761 116.08 28.108C116.236 28.5398 116.469 28.8845 116.779 29.142C117.094 29.3958 117.487 29.5227 117.961 29.5227ZM130.775 24.5795L128.9 24.7841C128.847 24.5947 128.754 24.4167 128.621 24.25C128.493 24.0833 128.318 23.9489 128.099 23.8466C127.879 23.7443 127.61 23.6932 127.292 23.6932C126.864 23.6932 126.504 23.786 126.212 23.9716C125.924 24.1572 125.782 24.3977 125.786 24.6932C125.782 24.947 125.875 25.1534 126.065 25.3125C126.258 25.4716 126.576 25.6023 127.019 25.7045L128.508 26.0227C129.334 26.2008 129.947 26.483 130.349 26.8693C130.754 27.2557 130.959 27.7614 130.962 28.3864C130.959 28.9356 130.798 29.4205 130.479 29.8409C130.165 30.2576 129.728 30.5833 129.167 30.8182C128.606 31.053 127.962 31.1705 127.235 31.1705C126.167 31.1705 125.307 30.947 124.656 30.5C124.004 30.0492 123.616 29.4223 123.491 28.6193L125.496 28.4261C125.587 28.8201 125.781 29.1174 126.076 29.3182C126.371 29.5189 126.756 29.6193 127.229 29.6193C127.718 29.6193 128.11 29.5189 128.406 29.3182C128.705 29.1174 128.854 28.8693 128.854 28.5739C128.854 28.3239 128.758 28.1174 128.565 27.9545C128.375 27.7917 128.08 27.6667 127.678 27.5795L126.19 27.267C125.353 27.0928 124.733 26.7992 124.332 26.3864C123.93 25.9697 123.731 25.4432 123.735 24.8068C123.731 24.2689 123.877 23.803 124.173 23.4091C124.472 23.0114 124.887 22.7045 125.417 22.4886C125.951 22.2689 126.567 22.1591 127.263 22.1591C128.286 22.1591 129.091 22.3769 129.678 22.8125C130.269 23.2481 130.635 23.8371 130.775 24.5795ZM136.718 31V19.3636H144.173V21.1307H138.826V24.2898H143.661V26.0568H138.826V31H136.718ZM146.002 31V22.2727H148.059V31H146.002ZM147.036 21.0341C146.71 21.0341 146.43 20.9261 146.195 20.7102C145.96 20.4905 145.843 20.2273 145.843 19.9205C145.843 19.6098 145.96 19.3466 146.195 19.1307C146.43 18.911 146.71 18.8011 147.036 18.8011C147.366 18.8011 147.646 18.911 147.877 19.1307C148.112 19.3466 148.229 19.6098 148.229 19.9205C148.229 20.2273 148.112 20.4905 147.877 20.7102C147.646 20.9261 147.366 21.0341 147.036 21.0341ZM152.231 25.8864V31H150.174V22.2727H152.14V23.7557H152.242C152.443 23.267 152.763 22.8788 153.202 22.5909C153.646 22.303 154.193 22.1591 154.844 22.1591C155.447 22.1591 155.971 22.2879 156.418 22.5455C156.869 22.803 157.218 23.1761 157.464 23.6648C157.714 24.1534 157.837 24.7462 157.833 25.4432V31H155.776V25.7614C155.776 25.178 155.625 24.7216 155.322 24.392C155.022 24.0625 154.608 23.8977 154.077 23.8977C153.718 23.8977 153.397 23.9773 153.117 24.1364C152.841 24.2917 152.623 24.517 152.464 24.8125C152.308 25.108 152.231 25.4659 152.231 25.8864ZM162.435 31.1761C161.882 31.1761 161.384 31.0777 160.941 30.8807C160.502 30.6799 160.153 30.3845 159.896 29.9943C159.642 29.6042 159.515 29.1231 159.515 28.5511C159.515 28.0587 159.606 27.6515 159.788 27.3295C159.969 27.0076 160.218 26.75 160.532 26.5568C160.846 26.3636 161.201 26.2178 161.594 26.1193C161.992 26.017 162.403 25.9432 162.827 25.8977C163.339 25.8447 163.754 25.7973 164.072 25.7557C164.39 25.7102 164.621 25.642 164.765 25.5511C164.913 25.4564 164.987 25.3106 164.987 25.1136V25.0795C164.987 24.6515 164.86 24.3201 164.606 24.0852C164.352 23.8504 163.987 23.733 163.509 23.733C163.005 23.733 162.606 23.8428 162.31 24.0625C162.019 24.2822 161.822 24.5417 161.719 24.8409L159.799 24.5682C159.951 24.0379 160.201 23.5947 160.549 23.2386C160.897 22.8788 161.324 22.6098 161.827 22.4318C162.331 22.25 162.888 22.1591 163.498 22.1591C163.918 22.1591 164.337 22.2083 164.754 22.3068C165.17 22.4053 165.551 22.5682 165.896 22.7955C166.24 23.0189 166.517 23.3239 166.725 23.7102C166.937 24.0966 167.043 24.5795 167.043 25.1591V31H165.066V29.8011H164.998C164.873 30.0436 164.697 30.2708 164.469 30.483C164.246 30.6913 163.964 30.8598 163.623 30.9886C163.286 31.1136 162.89 31.1761 162.435 31.1761ZM162.969 29.6648C163.382 29.6648 163.74 29.5833 164.043 29.4205C164.346 29.2538 164.579 29.0341 164.742 28.7614C164.909 28.4886 164.992 28.1913 164.992 27.8693V26.8409C164.928 26.8939 164.818 26.9432 164.663 26.9886C164.511 27.0341 164.341 27.0739 164.151 27.108C163.962 27.142 163.774 27.1723 163.589 27.1989C163.403 27.2254 163.242 27.2481 163.106 27.267C162.799 27.3087 162.524 27.3769 162.282 27.4716C162.04 27.5663 161.848 27.6989 161.708 27.8693C161.568 28.036 161.498 28.2519 161.498 28.517C161.498 28.8958 161.636 29.1818 161.913 29.375C162.189 29.5682 162.541 29.6648 162.969 29.6648ZM171.168 25.8864V31H169.112V22.2727H171.077V23.7557H171.18C171.38 23.267 171.701 22.8788 172.14 22.5909C172.583 22.303 173.13 22.1591 173.782 22.1591C174.384 22.1591 174.909 22.2879 175.356 22.5455C175.807 22.803 176.155 23.1761 176.401 23.6648C176.651 24.1534 176.774 24.7462 176.771 25.4432V31H174.714V25.7614C174.714 25.178 174.562 24.7216 174.259 24.392C173.96 24.0625 173.545 23.8977 173.015 23.8977C172.655 23.8977 172.335 23.9773 172.055 24.1364C171.778 24.2917 171.56 24.517 171.401 24.8125C171.246 25.108 171.168 25.4659 171.168 25.8864ZM182.668 31.1705C181.797 31.1705 181.049 30.9792 180.424 30.5966C179.803 30.214 179.324 29.6856 178.987 29.0114C178.653 28.3333 178.487 27.553 178.487 26.6705C178.487 25.7841 178.657 25.0019 178.998 24.3239C179.339 23.642 179.82 23.1117 180.441 22.733C181.066 22.3504 181.805 22.1591 182.657 22.1591C183.365 22.1591 183.992 22.2898 184.538 22.5511C185.087 22.8087 185.524 23.1742 185.85 23.6477C186.176 24.1174 186.362 24.6667 186.407 25.2955H184.441C184.362 24.875 184.172 24.5246 183.873 24.2443C183.577 23.9602 183.182 23.8182 182.685 23.8182C182.265 23.8182 181.896 23.9318 181.577 24.1591C181.259 24.3826 181.011 24.7045 180.833 25.125C180.659 25.5455 180.572 26.0492 180.572 26.6364C180.572 27.2311 180.659 27.7424 180.833 28.1705C181.007 28.5947 181.252 28.9223 181.566 29.1534C181.884 29.3807 182.257 29.4943 182.685 29.4943C182.988 29.4943 183.259 29.4375 183.498 29.3239C183.74 29.2064 183.943 29.0379 184.106 28.8182C184.269 28.5985 184.38 28.3314 184.441 28.017H186.407C186.358 28.6345 186.176 29.1818 185.862 29.6591C185.547 30.1326 185.119 30.5038 184.577 30.7727C184.036 31.0379 183.399 31.1705 182.668 31.1705ZM188.096 31V22.2727H190.153V31H188.096ZM189.13 21.0341C188.804 21.0341 188.524 20.9261 188.289 20.7102C188.054 20.4905 187.937 20.2273 187.937 19.9205C187.937 19.6098 188.054 19.3466 188.289 19.1307C188.524 18.911 188.804 18.8011 189.13 18.8011C189.46 18.8011 189.74 18.911 189.971 19.1307C190.206 19.3466 190.323 19.6098 190.323 19.9205C190.323 20.2273 190.206 20.4905 189.971 20.7102C189.74 20.9261 189.46 21.0341 189.13 21.0341ZM194.779 31.1761C194.226 31.1761 193.728 31.0777 193.285 30.8807C192.845 30.6799 192.497 30.3845 192.239 29.9943C191.986 29.6042 191.859 29.1231 191.859 28.5511C191.859 28.0587 191.95 27.6515 192.131 27.3295C192.313 27.0076 192.561 26.75 192.876 26.5568C193.19 26.3636 193.544 26.2178 193.938 26.1193C194.336 26.017 194.747 25.9432 195.171 25.8977C195.683 25.8447 196.097 25.7973 196.415 25.7557C196.734 25.7102 196.965 25.642 197.109 25.5511C197.256 25.4564 197.33 25.3106 197.33 25.1136V25.0795C197.33 24.6515 197.203 24.3201 196.95 24.0852C196.696 23.8504 196.33 23.733 195.853 23.733C195.349 23.733 194.95 23.8428 194.654 24.0625C194.362 24.2822 194.165 24.5417 194.063 24.8409L192.143 24.5682C192.294 24.0379 192.544 23.5947 192.893 23.2386C193.241 22.8788 193.667 22.6098 194.171 22.4318C194.675 22.25 195.232 22.1591 195.842 22.1591C196.262 22.1591 196.681 22.2083 197.097 22.3068C197.514 22.4053 197.895 22.5682 198.239 22.7955C198.584 23.0189 198.861 23.3239 199.069 23.7102C199.281 24.0966 199.387 24.5795 199.387 25.1591V31H197.41V29.8011H197.342C197.217 30.0436 197.04 30.2708 196.813 30.483C196.59 30.6913 196.308 30.8598 195.967 30.9886C195.629 31.1136 195.234 31.1761 194.779 31.1761ZM195.313 29.6648C195.726 29.6648 196.084 29.5833 196.387 29.4205C196.69 29.2538 196.923 29.0341 197.086 28.7614C197.253 28.4886 197.336 28.1913 197.336 27.8693V26.8409C197.272 26.8939 197.162 26.9432 197.006 26.9886C196.855 27.0341 196.684 27.0739 196.495 27.108C196.306 27.142 196.118 27.1723 195.933 27.1989C195.747 27.2254 195.586 27.2481 195.45 27.267C195.143 27.3087 194.868 27.3769 194.626 27.4716C194.383 27.5663 194.192 27.6989 194.052 27.8693C193.912 28.036 193.842 28.2519 193.842 28.517C193.842 28.8958 193.98 29.1818 194.256 29.375C194.533 29.5682 194.885 29.6648 195.313 29.6648ZM204.694 31.1534C204.008 31.1534 203.395 30.9773 202.853 30.625C202.311 30.2727 201.883 29.7614 201.569 29.0909C201.254 28.4205 201.097 27.6061 201.097 26.6477C201.097 25.678 201.256 24.8598 201.575 24.1932C201.897 23.5227 202.33 23.017 202.876 22.6761C203.421 22.3314 204.029 22.1591 204.7 22.1591C205.211 22.1591 205.631 22.2462 205.961 22.4205C206.29 22.5909 206.552 22.7973 206.745 23.0398C206.938 23.2784 207.088 23.5038 207.194 23.7159H207.279V19.3636H209.342V31H207.319V29.625H207.194C207.088 29.8371 206.934 30.0625 206.734 30.3011C206.533 30.536 206.268 30.7367 205.938 30.9034C205.609 31.0701 205.194 31.1534 204.694 31.1534ZM205.268 29.4659C205.703 29.4659 206.075 29.3485 206.381 29.1136C206.688 28.875 206.921 28.5436 207.08 28.1193C207.239 27.6951 207.319 27.2008 207.319 26.6364C207.319 26.072 207.239 25.5814 207.08 25.1648C206.925 24.7481 206.694 24.4242 206.387 24.1932C206.084 23.9621 205.711 23.8466 205.268 23.8466C204.809 23.8466 204.427 23.9659 204.12 24.2045C203.813 24.4432 203.582 24.7727 203.427 25.1932C203.272 25.6136 203.194 26.0947 203.194 26.6364C203.194 27.1818 203.272 27.6686 203.427 28.0966C203.586 28.5208 203.819 28.8561 204.126 29.1023C204.436 29.3447 204.817 29.4659 205.268 29.4659ZM215.34 31.1705C214.488 31.1705 213.749 30.983 213.124 30.608C212.499 30.233 212.014 29.7083 211.67 29.0341C211.329 28.3598 211.158 27.572 211.158 26.6705C211.158 25.7689 211.329 24.9792 211.67 24.3011C212.014 23.6231 212.499 23.0966 213.124 22.7216C213.749 22.3466 214.488 22.1591 215.34 22.1591C216.192 22.1591 216.931 22.3466 217.556 22.7216C218.181 23.0966 218.664 23.6231 219.005 24.3011C219.35 24.9792 219.522 25.7689 219.522 26.6705C219.522 27.572 219.35 28.3598 219.005 29.0341C218.664 29.7083 218.181 30.233 217.556 30.608C216.931 30.983 216.192 31.1705 215.34 31.1705ZM215.352 29.5227C215.814 29.5227 216.2 29.3958 216.511 29.142C216.821 28.8845 217.052 28.5398 217.204 28.108C217.359 27.6761 217.437 27.1951 217.437 26.6648C217.437 26.1307 217.359 25.6477 217.204 25.2159C217.052 24.7803 216.821 24.4337 216.511 24.1761C216.2 23.9186 215.814 23.7898 215.352 23.7898C214.878 23.7898 214.484 23.9186 214.17 24.1761C213.859 24.4337 213.626 24.7803 213.471 25.2159C213.319 25.6477 213.244 26.1307 213.244 26.6648C213.244 27.1951 213.319 27.6761 213.471 28.108C213.626 28.5398 213.859 28.8845 214.17 29.142C214.484 29.3958 214.878 29.5227 215.352 29.5227ZM221.268 31V22.2727H223.262V23.7273H223.353C223.512 23.2235 223.785 22.8352 224.171 22.5625C224.561 22.286 225.006 22.1477 225.506 22.1477C225.62 22.1477 225.747 22.1534 225.887 22.1648C226.031 22.1723 226.15 22.1856 226.245 22.2045V24.0966C226.158 24.0663 226.02 24.0398 225.83 24.017C225.645 23.9905 225.465 23.9773 225.29 23.9773C224.915 23.9773 224.578 24.0587 224.279 24.2216C223.984 24.3807 223.751 24.6023 223.58 24.8864C223.41 25.1705 223.325 25.4981 223.325 25.8693V31H221.268ZM231.116 31.1705C230.241 31.1705 229.485 30.9886 228.849 30.625C228.216 30.2576 227.729 29.7386 227.388 29.0682C227.048 28.3939 226.877 27.6004 226.877 26.6875C226.877 25.7898 227.048 25.0019 227.388 24.3239C227.733 23.642 228.214 23.1117 228.832 22.733C229.449 22.3504 230.174 22.1591 231.008 22.1591C231.546 22.1591 232.053 22.2462 232.531 22.4205C233.012 22.5909 233.436 22.8561 233.803 23.2159C234.174 23.5758 234.466 24.0341 234.678 24.5909C234.89 25.1439 234.996 25.803 234.996 26.5682V27.1989H227.843V25.8125H233.025C233.021 25.4186 232.936 25.0682 232.769 24.7614C232.603 24.4508 232.37 24.2064 232.07 24.0284C231.775 23.8504 231.43 23.7614 231.036 23.7614C230.616 23.7614 230.246 23.8636 229.928 24.0682C229.61 24.2689 229.362 24.5341 229.184 24.8636C229.01 25.1894 228.921 25.5473 228.917 25.9375V27.1477C228.917 27.6553 229.01 28.0909 229.195 28.4545C229.381 28.8144 229.64 29.0909 229.974 29.2841C230.307 29.4735 230.697 29.5682 231.144 29.5682C231.443 29.5682 231.714 29.5265 231.957 29.4432C232.199 29.3561 232.409 29.2292 232.587 29.0625C232.765 28.8958 232.9 28.6894 232.991 28.4432L234.911 28.6591C234.79 29.1667 234.559 29.6098 234.218 29.9886C233.881 30.3636 233.449 30.6553 232.923 30.8636C232.396 31.0682 231.794 31.1705 231.116 31.1705ZM243.634 24.5795L241.759 24.7841C241.706 24.5947 241.613 24.4167 241.481 24.25C241.352 24.0833 241.178 23.9489 240.958 23.8466C240.738 23.7443 240.469 23.6932 240.151 23.6932C239.723 23.6932 239.363 23.786 239.072 23.9716C238.784 24.1572 238.642 24.3977 238.646 24.6932C238.642 24.947 238.735 25.1534 238.924 25.3125C239.117 25.4716 239.435 25.6023 239.879 25.7045L241.367 26.0227C242.193 26.2008 242.807 26.483 243.208 26.8693C243.613 27.2557 243.818 27.7614 243.822 28.3864C243.818 28.9356 243.657 29.4205 243.339 29.8409C243.024 30.2576 242.587 30.5833 242.026 30.8182C241.466 31.053 240.822 31.1705 240.094 31.1705C239.026 31.1705 238.166 30.947 237.515 30.5C236.863 30.0492 236.475 29.4223 236.35 28.6193L238.356 28.4261C238.447 28.8201 238.64 29.1174 238.935 29.3182C239.231 29.5189 239.615 29.6193 240.089 29.6193C240.577 29.6193 240.969 29.5189 241.265 29.3182C241.564 29.1174 241.714 28.8693 241.714 28.5739C241.714 28.3239 241.617 28.1174 241.424 27.9545C241.235 27.7917 240.939 27.6667 240.538 27.5795L239.049 27.267C238.212 27.0928 237.593 26.7992 237.191 26.3864C236.79 25.9697 236.591 25.4432 236.594 24.8068C236.591 24.2689 236.737 23.803 237.032 23.4091C237.331 23.0114 237.746 22.7045 238.276 22.4886C238.81 22.2689 239.426 22.1591 240.123 22.1591C241.146 22.1591 241.951 22.3769 242.538 22.8125C243.129 23.2481 243.494 23.8371 243.634 24.5795ZM246.785 31.125C246.44 31.125 246.145 31.0038 245.898 30.7614C245.652 30.5189 245.531 30.2235 245.535 29.875C245.531 29.5341 245.652 29.2424 245.898 29C246.145 28.7576 246.44 28.6364 246.785 28.6364C247.118 28.6364 247.408 28.7576 247.654 29C247.904 29.2424 248.031 29.5341 248.035 29.875C248.031 30.1061 247.97 30.3163 247.853 30.5057C247.739 30.6951 247.588 30.8466 247.398 30.9602C247.213 31.0701 247.008 31.125 246.785 31.125ZM246.785 24.8977C246.44 24.8977 246.145 24.7765 245.898 24.5341C245.652 24.2879 245.531 23.9924 245.535 23.6477C245.531 23.3068 245.652 23.0152 245.898 22.7727C246.145 22.5265 246.44 22.4034 246.785 22.4034C247.118 22.4034 247.408 22.5265 247.654 22.7727C247.904 23.0152 248.031 23.3068 248.035 23.6477C248.031 23.875 247.97 24.0833 247.853 24.2727C247.739 24.4621 247.588 24.6136 247.398 24.7273C247.213 24.8409 247.008 24.8977 246.785 24.8977Z" fill="white"/>
<mask id="mask0_2002_6881" style="mask-type:luminance" maskUnits="userSpaceOnUse" x="198" y="94" width="12" height="20">
<path d="M198.605 94.6675H209.472V113.033H198.605V94.6675Z" fill="white"/>
</mask>
<g mask="url(#mask0_2002_6881)">
<mask id="mask1_2002_6881" style="mask-type:luminance" maskUnits="userSpaceOnUse" x="198" y="94" width="12" height="20">
<path d="M206.827 109.114V109.952C206.827 110.224 206.72 110.446 206.506 110.615C206.235 110.836 205.889 110.922 205.464 110.871C205.092 110.823 204.66 110.597 204.363 110.181V101.082C204.711 100.69 205.075 100.47 205.464 100.419C205.889 100.367 206.235 100.454 206.506 100.674C206.716 100.843 206.827 101.065 206.827 101.337V109.114ZM201.523 111.789C200.701 111.789 200.034 111.227 200.034 110.529C200.034 109.831 200.701 109.275 201.523 109.275C202.346 109.275 203.012 109.835 203.012 110.529C203.012 111.223 202.346 111.789 201.523 111.789ZM208.248 98.6415C207.81 98.3862 207.261 98.2627 206.607 98.2627C205.671 98.2627 204.923 98.5551 204.368 99.144V94.7128H201.75V107.312C201.731 107.679 201.558 108.004 201.081 108.113C199.689 108.295 198.624 109.306 198.624 110.529C198.624 111.882 199.921 112.977 201.527 112.977C202.243 112.977 202.897 112.757 203.403 112.392C203.411 112.384 203.42 112.38 203.426 112.372C203.498 112.322 203.568 112.263 203.633 112.205C203.736 112.133 203.849 112.075 203.987 112.075C204.164 112.075 204.289 112.102 204.433 112.207C205.001 112.744 205.723 113.016 206.603 113.016C206.638 113.016 206.673 113.012 206.71 113.012C207.331 113.004 207.854 112.878 208.275 112.635C208.715 112.38 209.015 112.098 209.188 111.785C209.349 111.486 209.435 110.984 209.439 110.278C209.439 110.247 209.443 110.212 209.443 110.177V101.1C209.443 100.34 209.353 99.8029 209.174 99.4899C208.993 99.1749 208.684 98.8928 208.248 98.6374" fill="white"/>
</mask>
<g mask="url(#mask1_2002_6881)">
<path d="M144.878 92.7524H217.558V115.034H144.878V92.7524Z" fill="white"/>
</g>
</g>
<mask id="mask2_2002_6881" style="mask-type:luminance" maskUnits="userSpaceOnUse" x="210" y="98" width="6" height="15">
<path d="M210.776 98.1475H215.646V112.946H210.776V98.1475Z" fill="white"/>
</mask>
<g mask="url(#mask2_2002_6881)">
<mask id="mask3_2002_6881" style="mask-type:luminance" maskUnits="userSpaceOnUse" x="210" y="98" width="6" height="15">
<path d="M213.38 99.1255V98.3472H210.794V112.899H213.38V101.059C213.756 100.67 214.145 100.445 214.539 100.396C214.973 100.345 215.342 100.431 215.64 100.649V98.2113C214.708 98.2113 213.951 98.5161 213.375 99.1214" fill="white"/>
</mask>
<g mask="url(#mask3_2002_6881)">
<path d="M144.878 92.7526H217.558V115.034H144.878V92.7526Z" fill="white"/>
</g>
</g>
<mask id="mask4_2002_6881" style="mask-type:luminance" maskUnits="userSpaceOnUse" x="146" y="98" width="9" height="16">
<path d="M146.791 98.236H154.614V113.119H146.791V98.236Z" fill="white"/>
</mask>
<g mask="url(#mask4_2002_6881)">
<mask id="mask5_2002_6881" style="mask-type:luminance" maskUnits="userSpaceOnUse" x="146" y="98" width="9" height="16">
<path d="M154.586 109.816C154.586 110.714 154.213 111.482 153.469 112.118C152.724 112.753 151.82 113.074 150.754 113.074C149.689 113.074 148.768 112.757 147.996 112.123C147.225 111.486 146.836 110.722 146.836 109.823V101.568C146.836 100.67 147.217 99.9059 147.974 99.2697C148.728 98.6334 149.642 98.3163 150.711 98.3163C151.78 98.3163 152.694 98.6334 153.448 99.2655C154.205 99.8977 154.586 100.666 154.586 101.559V106.713H151.992V101.498C151.992 101.207 151.867 100.96 151.616 100.744C151.365 100.528 151.067 100.427 150.725 100.427C150.366 100.427 150.057 100.528 149.806 100.732C149.555 100.938 149.43 101.191 149.43 101.498V109.891C149.43 110.195 149.555 110.451 149.806 110.654C150.057 110.858 150.361 110.961 150.725 110.961C151.067 110.961 151.365 110.854 151.616 110.64C151.867 110.424 151.992 110.173 151.992 109.878V109.055H154.586V109.816Z" fill="white"/>
</mask>
<g mask="url(#mask5_2002_6881)">
<path d="M144.878 92.7526H217.558V115.034H144.878V92.7526Z" fill="white"/>
</g>
</g>
<mask id="mask6_2002_6881" style="mask-type:luminance" maskUnits="userSpaceOnUse" x="155" y="98" width="9" height="16">
<path d="M155.918 98.236H163.83V113.119H155.918V98.236Z" fill="white"/>
</mask>
<g mask="url(#mask6_2002_6881)">
<mask id="mask7_2002_6881" style="mask-type:luminance" maskUnits="userSpaceOnUse" x="156" y="98" width="8" height="16">
<path d="M161.159 105.568V101.498C161.159 101.191 161.033 100.938 160.782 100.732C160.532 100.528 160.225 100.427 159.861 100.427C159.52 100.427 159.224 100.532 158.973 100.744C158.722 100.956 158.596 101.207 158.596 101.493V105.568H161.159ZM163.75 109.816C163.75 110.714 163.378 111.482 162.635 112.118C161.891 112.753 160.986 113.07 159.921 113.07C158.835 113.07 157.911 112.757 157.146 112.129C156.383 111.503 156.003 110.733 156.003 109.821V101.568C156.003 100.67 156.379 99.9059 157.138 99.2697C157.899 98.6334 158.808 98.3163 159.878 98.3163C160.947 98.3163 161.858 98.6334 162.615 99.2697C163.372 99.9059 163.75 100.67 163.75 101.563V107.603H158.592V109.886C158.592 110.177 158.718 110.428 158.969 110.642C159.219 110.858 159.516 110.965 159.857 110.965C160.217 110.965 160.527 110.862 160.778 110.654C161.029 110.446 161.155 110.191 161.155 109.882V109.059H163.748L163.75 109.816Z" fill="white"/>
</mask>
<g mask="url(#mask7_2002_6881)">
<path d="M144.879 92.7526H217.559V115.034H144.879V92.7526Z" fill="white"/>
</g>
</g>
<mask id="mask8_2002_6881" style="mask-type:luminance" maskUnits="userSpaceOnUse" x="165" y="98" width="14" height="16">
<path d="M165.395 98.236H178.349V113.119H165.395V98.236Z" fill="white"/>
</mask>
<g mask="url(#mask8_2002_6881)">
<mask id="mask9_2002_6881" style="mask-type:luminance" maskUnits="userSpaceOnUse" x="165" y="98" width="14" height="16">
<path d="M178.337 109.823C178.337 110.722 177.965 111.486 177.22 112.123C176.478 112.757 175.573 113.074 174.508 113.074C174.006 113.074 173.5 112.965 172.998 112.744C172.414 112.51 172.044 112.211 171.881 111.855C171.721 112.211 171.373 112.501 170.841 112.734C170.308 112.965 169.802 113.078 169.317 113.078C168.251 113.078 167.33 112.761 166.559 112.125C165.788 111.49 165.399 110.724 165.399 109.827V98.3163H167.992V109.895C167.992 110.185 168.118 110.432 168.369 110.642C168.62 110.854 168.918 110.961 169.257 110.961C169.619 110.961 169.928 110.858 170.178 110.654C170.429 110.451 170.555 110.195 170.555 109.891V98.3163H173.148V109.895C173.148 110.199 173.276 110.455 173.535 110.659C173.794 110.862 174.102 110.965 174.46 110.965C174.816 110.965 175.122 110.862 175.369 110.659C175.616 110.455 175.742 110.199 175.742 109.895V98.3163H178.333L178.337 109.823Z" fill="white"/>
</mask>
<g mask="url(#mask9_2002_6881)">
<path d="M144.878 92.7526H217.558V115.034H144.878V92.7526Z" fill="white"/>
</g>
</g>
<mask id="mask10_2002_6881" style="mask-type:luminance" maskUnits="userSpaceOnUse" x="179" y="98" width="9" height="16">
<path d="M179.826 98.236H187.738V113.119H179.826V98.236Z" fill="white"/>
</mask>
<g mask="url(#mask10_2002_6881)">
<mask id="mask11_2002_6881" style="mask-type:luminance" maskUnits="userSpaceOnUse" x="179" y="98" width="9" height="16">
<path d="M185.06 105.568V101.498C185.06 101.191 184.935 100.938 184.684 100.732C184.433 100.528 184.127 100.427 183.763 100.427C183.421 100.427 183.125 100.532 182.874 100.744C182.623 100.956 182.498 101.207 182.498 101.493V105.568H185.06ZM187.654 109.816C187.654 110.714 187.281 111.482 186.537 112.118C185.793 112.753 184.888 113.07 183.822 113.07C182.736 113.07 181.813 112.757 181.048 112.129C180.285 111.503 179.9 110.733 179.9 109.821V101.568C179.9 100.67 180.281 99.9059 181.038 99.2697C181.792 98.6334 182.706 98.3163 183.775 98.3163C184.844 98.3163 185.758 98.6334 186.512 99.2697C187.269 99.9059 187.65 100.67 187.65 101.563V107.603H182.498V109.886C182.498 110.177 182.623 110.428 182.874 110.642C183.125 110.858 183.421 110.965 183.763 110.965C184.123 110.965 184.429 110.862 184.684 110.654C184.939 110.446 185.06 110.191 185.06 109.882V109.059H187.654V109.816Z" fill="white"/>
</mask>
<g mask="url(#mask11_2002_6881)">
<path d="M144.879 92.7526H217.559V115.034H144.879V92.7526Z" fill="white"/>
</g>
</g>
<mask id="mask12_2002_6881" style="mask-type:luminance" maskUnits="userSpaceOnUse" x="189" y="94" width="8" height="20">
<path d="M189.217 94.754H196.954V113.119H189.217V94.754Z" fill="white"/>
</mask>
<g mask="url(#mask12_2002_6881)">
<mask id="mask13_2002_6881" style="mask-type:luminance" maskUnits="userSpaceOnUse" x="189" y="94" width="8" height="20">
<path d="M194.358 109.969C194.358 110.29 194.223 110.537 193.947 110.706C193.674 110.875 193.349 110.932 192.976 110.883C192.582 110.832 192.213 110.611 191.856 110.22V101.117C192.209 100.73 192.582 100.505 192.976 100.454C193.349 100.402 193.674 100.462 193.947 100.631C194.223 100.8 194.358 101.047 194.358 101.368V109.969ZM196.674 99.5374C196.493 99.2223 196.185 98.9402 195.749 98.6849C195.315 98.4296 194.762 98.3039 194.108 98.3039C193.172 98.3039 192.427 98.5984 191.868 99.1873V94.7561H189.252V107.356C189.252 107.364 189.256 107.376 189.256 107.389V112.946H191.847V112.18C192.088 112.419 192.341 112.609 192.623 112.744C192.968 112.917 193.349 113.016 193.772 113.051C193.783 113.051 193.799 113.055 193.811 113.055C193.908 113.064 194.007 113.068 194.108 113.068C194.219 113.068 194.311 113.064 194.389 113.055C194.934 113.029 195.397 112.903 195.778 112.687C196.216 112.431 196.522 112.149 196.691 111.834C196.851 111.538 196.933 111.035 196.944 110.329C196.944 110.298 196.944 110.263 196.944 110.228V101.148C196.944 100.388 196.855 99.8503 196.674 99.5374Z" fill="white"/>
</mask>
<g mask="url(#mask13_2002_6881)">
<path d="M144.879 92.7526H217.559V115.034H144.879V92.7526Z" fill="white"/>
</g>
</g>
<mask id="mask14_2002_6881" style="mask-type:luminance" maskUnits="userSpaceOnUse" x="260" y="98" width="6" height="15">
<path d="M260.227 98.1371H265.173V112.905H260.227V98.1371Z" fill="white"/>
</mask>
<g mask="url(#mask14_2002_6881)">
<mask id="mask15_2002_6881" style="mask-type:luminance" maskUnits="userSpaceOnUse" x="260" y="98" width="6" height="15">
<path d="M262.894 99.1255V98.3471H260.307V112.903H262.894V101.061C263.268 100.674 263.657 100.449 264.056 100.4C264.492 100.349 264.86 100.431 265.156 100.653V98.2153C264.224 98.2153 263.47 98.5201 262.894 99.1255Z" fill="white"/>
</mask>
<g mask="url(#mask15_2002_6881)">
<path d="M223.177 92.7526H267.081V114.991H223.177V92.7526Z" fill="white"/>
</g>
</g>
<mask id="mask16_2002_6881" style="mask-type:luminance" maskUnits="userSpaceOnUse" x="248" y="94" width="12" height="20">
<path d="M248.081 94.6635H259.013V113.08H248.081V94.6635Z" fill="white"/>
</mask>
<g mask="url(#mask16_2002_6881)">
<mask id="mask17_2002_6881" style="mask-type:luminance" maskUnits="userSpaceOnUse" x="248" y="94" width="11" height="20">
<path d="M256.34 109.118V109.961C256.34 110.23 256.235 110.455 256.019 110.624C255.747 110.844 255.4 110.93 254.976 110.879C254.604 110.832 254.174 110.603 253.876 110.189V101.086C254.225 100.693 254.589 100.474 254.976 100.423C255.404 100.371 255.747 100.458 256.019 100.678C256.231 100.847 256.34 101.069 256.34 101.341V109.118ZM251.036 111.793C250.213 111.793 249.547 111.231 249.547 110.533C249.547 109.835 250.213 109.279 251.036 109.279C251.858 109.279 252.525 109.839 252.525 110.533C252.525 111.227 251.858 111.793 251.036 111.793ZM257.761 98.6417C257.323 98.3905 256.776 98.2628 256.117 98.2628C255.18 98.2628 254.435 98.5552 253.876 99.1441V94.7129H251.26V107.317C251.239 107.681 251.066 108.009 250.589 108.122C249.199 108.301 248.134 109.314 248.134 110.537C248.134 111.89 249.434 112.987 251.036 112.987C251.753 112.987 252.407 112.769 252.913 112.405C252.919 112.397 252.928 112.392 252.936 112.384C253.006 112.329 253.078 112.275 253.14 112.215C253.242 112.145 253.355 112.086 253.495 112.086C253.668 112.086 253.798 112.114 253.942 112.219C254.511 112.757 255.235 113.029 256.113 113.029C256.148 113.029 256.183 113.025 256.218 113.025C256.841 113.012 257.366 112.891 257.785 112.648C258.223 112.392 258.526 112.11 258.699 111.795C258.859 111.499 258.945 110.996 258.949 110.29C258.949 110.259 258.951 110.224 258.951 110.189V101.104C258.951 100.345 258.863 99.8071 258.682 99.4941C258.501 99.1791 258.193 98.897 257.755 98.6417" fill="white"/>
</mask>
<g mask="url(#mask17_2002_6881)">
<path d="M223.177 92.7526H267.081V114.991H223.177V92.7526Z" fill="white"/>
</g>
</g>
<mask id="mask18_2002_6881" style="mask-type:luminance" maskUnits="userSpaceOnUse" x="225" y="98" width="8" height="15">
<path d="M225.088 98.3121H232.808V112.905H225.088V98.3121Z" fill="white"/>
</mask>
<g mask="url(#mask18_2002_6881)">
<mask id="mask19_2002_6881" style="mask-type:luminance" maskUnits="userSpaceOnUse" x="225" y="98" width="8" height="15">
<path d="M232.759 112.895H230.182V101.395C230.182 101.129 230.075 100.905 229.861 100.736C229.59 100.517 229.242 100.435 228.819 100.485C228.432 100.536 228.064 100.752 227.718 101.141V112.895H225.137V98.4419H227.718V99.2223C228.29 98.6375 229.034 98.3451 229.943 98.3451C230.593 98.3451 231.138 98.4686 231.576 98.7199C232.014 98.9711 232.317 99.2532 232.498 99.5682C232.677 99.8812 232.763 100.41 232.763 101.168L232.759 112.895Z" fill="white"/>
</mask>
<g mask="url(#mask19_2002_6881)">
<path d="M223.177 92.7526H267.081V114.991H223.177V92.7526Z" fill="white"/>
</g>
</g>
<mask id="mask20_2002_6881" style="mask-type:luminance" maskUnits="userSpaceOnUse" x="234" y="94" width="4" height="19">
<path d="M234.63 94.7499H237.234V112.905H234.63V94.7499Z" fill="white"/>
</mask>
<g mask="url(#mask20_2002_6881)">
<mask id="mask21_2002_6881" style="mask-type:luminance" maskUnits="userSpaceOnUse" x="234" y="94" width="4" height="19">
<path d="M237.209 96.9593H234.632V94.8302H237.213L237.209 96.9593ZM237.209 112.895H234.632V98.4419H237.213L237.209 112.895Z" fill="white"/>
</mask>
<g mask="url(#mask21_2002_6881)">
<path d="M223.177 92.7526H267.081V114.991H223.177V92.7526Z" fill="white"/>
</g>
</g>
<mask id="mask22_2002_6881" style="mask-type:luminance" maskUnits="userSpaceOnUse" x="238" y="98" width="9" height="16">
<path d="M238.708 98.3121H246.431V113.08H238.708V98.3121Z" fill="white"/>
</mask>
<g mask="url(#mask22_2002_6881)">
<mask id="mask23_2002_6881" style="mask-type:luminance" maskUnits="userSpaceOnUse" x="238" y="98" width="9" height="15">
<path d="M246.418 109.744C246.418 110.642 246.05 111.408 245.314 112.042C244.576 112.679 243.675 112.996 242.622 112.996C241.569 112.996 240.656 112.683 239.889 112.051C239.12 111.42 238.741 110.659 238.741 109.769V101.572C238.741 100.682 239.111 99.9203 239.864 99.2902C240.617 98.6581 241.522 98.3451 242.579 98.3451C243.636 98.3451 244.545 98.6622 245.298 99.2923C246.05 99.9244 246.423 100.686 246.423 101.58V106.705H243.835V101.489C243.835 101.203 243.714 100.952 243.467 100.74C243.22 100.528 242.928 100.423 242.591 100.423C242.233 100.423 241.933 100.528 241.686 100.74C241.439 100.952 241.314 101.199 241.314 101.489V109.847C241.314 110.138 241.435 110.385 241.686 110.601C241.937 110.815 242.233 110.918 242.591 110.918C242.928 110.918 243.218 110.807 243.467 110.593C243.718 110.376 243.835 110.117 243.835 109.823V108.985H246.418V109.744Z" fill="white"/>
</mask>
<g mask="url(#mask23_2002_6881)">
<path d="M223.177 92.7526H267.081V114.991H223.177V92.7526Z" fill="white"/>
</g>
</g>
<mask id="mask24_2002_6881" style="mask-type:luminance" maskUnits="userSpaceOnUse" x="274" y="98" width="9" height="16">
<path d="M274.608 98.2936H282.458V113.105H274.608V98.2936Z" fill="white"/>
</mask>
<g mask="url(#mask24_2002_6881)">
<mask id="mask25_2002_6881" style="mask-type:luminance" maskUnits="userSpaceOnUse" x="274" y="98" width="9" height="16">
<path d="M282.403 109.765C282.403 110.671 282.031 111.443 281.286 112.083C280.542 112.722 279.637 113.043 278.572 113.043C277.506 113.043 276.587 112.726 275.814 112.094C275.042 111.464 274.656 110.691 274.656 109.796V101.557C274.656 100.657 275.034 99.8976 275.791 99.2614C276.548 98.6272 277.459 98.3101 278.528 98.3101C279.598 98.3101 280.511 98.6272 281.268 99.2614C282.022 99.8976 282.403 100.657 282.403 101.557V106.703H279.801V101.479C279.801 101.189 279.676 100.942 279.425 100.725C279.176 100.509 278.882 100.408 278.545 100.408C278.185 100.408 277.878 100.513 277.632 100.725C277.385 100.937 277.259 101.189 277.259 101.475V109.868C277.259 110.156 277.385 110.407 277.632 110.619C277.878 110.831 278.189 110.939 278.545 110.939C278.882 110.939 279.176 110.827 279.425 110.609C279.676 110.389 279.801 110.129 279.801 109.831V108.997H282.403V109.765Z" fill="white"/>
</mask>
<g mask="url(#mask25_2002_6881)">
<path d="M272.696 92.7526H316.676V118.547H272.696V92.7526Z" fill="white"/>
</g>
</g>
<mask id="mask26_2002_6881" style="mask-type:luminance" maskUnits="userSpaceOnUse" x="283" y="98" width="9" height="19">
<path d="M283.968 98.1927H291.818V116.632H283.968V98.1927Z" fill="white"/>
</mask>
<g mask="url(#mask26_2002_6881)">
<mask id="mask27_2002_6881" style="mask-type:luminance" maskUnits="userSpaceOnUse" x="284" y="98" width="8" height="19">
<path d="M289.148 98.3637V99.1647C288.568 98.5717 287.807 98.2772 286.872 98.2772C286.214 98.2772 285.666 98.4028 285.226 98.6582C284.788 98.9135 284.486 99.1956 284.313 99.5086C284.143 99.8236 284.06 100.353 284.06 101.108V110.197C284.06 110.957 284.147 111.495 284.313 111.808C284.482 112.123 284.788 112.405 285.226 112.66C285.666 112.913 286.218 113.039 286.872 113.039C287.807 113.039 288.568 112.742 289.148 112.154V113.644C289.148 113.957 289.023 114.217 288.772 114.429C288.521 114.639 288.219 114.742 287.859 114.742C287.499 114.742 287.201 114.633 286.962 114.421C286.724 114.209 286.602 113.949 286.602 113.655H284.056C284.056 114.522 284.424 115.228 285.156 115.773C285.889 116.319 286.802 116.589 287.886 116.589C288.971 116.589 289.889 116.319 290.633 115.782C291.378 115.244 291.748 114.53 291.748 113.644V98.3637H289.148ZM289.148 110.216C288.768 110.609 288.379 110.827 287.98 110.879C287.542 110.93 287.186 110.848 286.902 110.624C286.703 110.455 286.606 110.232 286.606 109.961V101.356C286.606 101.086 286.732 100.851 286.979 100.655C287.225 100.458 287.573 100.388 288.011 100.439C288.412 100.491 288.788 100.713 289.148 101.102V110.216Z" fill="white"/>
</mask>
<g mask="url(#mask27_2002_6881)">
<path d="M272.695 92.7527H316.676V118.547H272.695V92.7527Z" fill="white"/>
</g>
</g>
<mask id="mask28_2002_6881" style="mask-type:luminance" maskUnits="userSpaceOnUse" x="293" y="94" width="4" height="19">
<path d="M293.504 94.7169H296.108V96.8666H293.504V94.7169ZM293.504 98.3636H296.108V112.942H293.504V98.3636Z" fill="white"/>
</mask>
<g mask="url(#mask28_2002_6881)">
<path d="M272.696 92.7526H316.676V118.547H272.696V92.7526Z" fill="white"/>
</g>
<mask id="mask29_2002_6881" style="mask-type:luminance" maskUnits="userSpaceOnUse" x="297" y="94" width="12" height="20">
<path d="M297.655 94.6654H308.625V113.105H297.655V94.6654Z" fill="white"/>
</mask>
<g mask="url(#mask29_2002_6881)">
<mask id="mask30_2002_6881" style="mask-type:luminance" maskUnits="userSpaceOnUse" x="297" y="94" width="12" height="20">
<path d="M305.928 109.114V109.952C305.928 110.224 305.824 110.446 305.608 110.615C305.338 110.836 304.989 110.922 304.565 110.871C304.193 110.823 303.759 110.597 303.465 110.181V101.086C303.814 100.694 304.178 100.474 304.565 100.423C304.989 100.371 305.338 100.458 305.608 100.678C305.824 100.847 305.928 101.069 305.928 101.341V109.114ZM300.62 111.793C299.798 111.793 299.133 111.231 299.133 110.537C299.133 109.843 299.798 109.279 300.62 109.279C301.443 109.279 302.109 109.839 302.109 110.537C302.109 111.235 301.443 111.793 300.62 111.793ZM307.348 98.6415C306.907 98.3883 306.36 98.2627 305.702 98.2627C304.766 98.2627 304.022 98.5571 303.461 99.144V94.7128H300.849V107.315C300.824 107.675 300.657 108.004 300.178 108.113C298.788 108.295 297.723 109.306 297.723 110.529C297.723 111.884 299.018 112.977 300.62 112.977C301.338 112.977 301.992 112.757 302.498 112.392C302.506 112.384 302.512 112.38 302.525 112.374C302.595 112.322 302.667 112.263 302.733 112.205C302.831 112.133 302.948 112.079 303.084 112.079C303.261 112.079 303.387 112.106 303.533 112.213C304.1 112.748 304.82 113.02 305.702 113.02C305.737 113.02 305.772 113.016 305.803 113.016C306.426 113.008 306.951 112.882 307.37 112.639C307.808 112.384 308.115 112.102 308.283 111.789C308.444 111.49 308.526 110.988 308.534 110.282C308.534 110.251 308.538 110.216 308.538 110.181V101.106C308.538 100.344 308.448 99.807 308.267 99.494C308.088 99.179 307.777 98.8969 307.343 98.6415" fill="white"/>
</mask>
<g mask="url(#mask30_2002_6881)">
<path d="M272.696 92.7524H316.676V118.547H272.696V92.7524Z" fill="white"/>
</g>
</g>
<mask id="mask31_2002_6881" style="mask-type:luminance" maskUnits="userSpaceOnUse" x="309" y="98" width="6" height="15">
<path d="M309.832 98.1927H314.763V112.905H309.832V98.1927Z" fill="white"/>
</mask>
<g mask="url(#mask31_2002_6881)">
<mask id="mask32_2002_6881" style="mask-type:luminance" maskUnits="userSpaceOnUse" x="309" y="98" width="6" height="15">
<path d="M312.478 99.1255V98.3493H309.893V112.899H312.478V101.059C312.855 100.67 313.241 100.447 313.64 100.396C314.076 100.345 314.444 100.431 314.743 100.651V98.2113C313.809 98.2113 313.058 98.514 312.478 99.1214" fill="white"/>
</mask>
<g mask="url(#mask32_2002_6881)">
<path d="M272.695 92.7526H316.676V118.547H272.695V92.7526Z" fill="white"/>
</g>
</g>
<mask id="mask33_2002_6881" style="mask-type:luminance" maskUnits="userSpaceOnUse" x="146" y="48" width="28" height="18">
<path d="M146.139 48.4961H173.052V65.2449H146.139V48.4961Z" fill="white"/>
</mask>
<g mask="url(#mask33_2002_6881)">
<mask id="mask34_2002_6881" style="mask-type:luminance" maskUnits="userSpaceOnUse" x="146" y="48" width="27" height="18">
<path d="M146.281 48.5476H154.734L159.637 58.8555L164.521 48.5476H172.949V65.1028H167.538V53.6892L162.146 65.1028H157.103L151.692 53.6892V65.1028H146.281V48.5476Z" fill="white"/>
</mask>
<g mask="url(#mask34_2002_6881)">
<path d="M143.953 46.2146H322.412V89.3262H143.953V46.2146Z" fill="white"/>
</g>
</g>
<mask id="mask35_2002_6881" style="mask-type:luminance" maskUnits="userSpaceOnUse" x="175" y="50" width="21" height="16">
<path d="M175.573 50.7632H195.853V65.5826H175.573V50.7632Z" fill="white"/>
</mask>
<g mask="url(#mask35_2002_6881)">
<mask id="mask36_2002_6881" style="mask-type:luminance" maskUnits="userSpaceOnUse" x="175" y="50" width="21" height="16">
<path d="M185.726 61.415C188.581 61.415 190.448 60.1465 190.448 58.1657C190.448 56.2075 188.581 54.9391 185.726 54.9391C182.872 54.9391 181.005 56.2075 181.005 58.1657C181.005 60.1465 182.872 61.415 185.726 61.415ZM175.664 58.1595C175.664 53.6665 179.651 50.7797 185.726 50.7797C191.804 50.7797 195.789 53.6604 195.789 58.1595C195.789 62.6587 191.808 65.5641 185.726 65.5641C179.645 65.5641 175.664 62.6587 175.664 58.1595Z" fill="white"/>
</mask>
<g mask="url(#mask36_2002_6881)">
<path d="M143.953 46.2146H322.412V89.3262H143.953V46.2146Z" fill="white"/>
</g>
</g>
<mask id="mask37_2002_6881" style="mask-type:luminance" maskUnits="userSpaceOnUse" x="196" y="51" width="22" height="15">
<path d="M196.094 51.1318H217.439V65.245H196.094V51.1318Z" fill="white"/>
</mask>
<g mask="url(#mask37_2002_6881)">
<mask id="mask38_2002_6881" style="mask-type:luminance" maskUnits="userSpaceOnUse" x="196" y="51" width="22" height="15">
<path d="M196.209 51.2472H202.198L206.802 61.5777L211.385 51.2472H217.328L210.669 65.1029H202.864L196.209 51.2472Z" fill="white"/>
</mask>
<g mask="url(#mask38_2002_6881)">
<path d="M143.953 46.2147H322.412V89.3263H143.953V46.2147Z" fill="white"/>
</g>
</g>
<mask id="mask39_2002_6881" style="mask-type:luminance" maskUnits="userSpaceOnUse" x="217" y="50" width="22" height="16">
<path d="M217.625 50.7632H238.145V65.5826H217.625V50.7632Z" fill="white"/>
</mask>
<g mask="url(#mask39_2002_6881)">
<mask id="mask40_2002_6881" style="mask-type:luminance" maskUnits="userSpaceOnUse" x="217" y="50" width="22" height="16">
<path d="M232.504 56.6872C231.879 55.1203 230.338 54.4964 228.037 54.4964C225.528 54.4964 223.94 55.1614 223.363 56.6872H232.504ZM217.76 58.1842C217.76 53.6418 221.701 50.7797 227.823 50.7797C234.273 50.7797 238.003 53.7077 238.003 59.2426H223.241C223.702 61.0423 225.454 61.8474 228.169 61.8474C230.357 61.8474 232.132 61.2235 232.681 60.1877H237.886C236.778 63.7603 233.765 65.5826 227.846 65.5599C221.676 65.5599 217.738 62.6772 217.76 58.1842Z" fill="white"/>
</mask>
<g mask="url(#mask40_2002_6881)">
<path d="M143.954 46.2146H322.412V89.3262H143.954V46.2146Z" fill="white"/>
</g>
</g>
<mask id="mask41_2002_6881" style="mask-type:luminance" maskUnits="userSpaceOnUse" x="240" y="50" width="15" height="16">
<path d="M240.331 50.7632H254.795V65.2449H240.331V50.7632Z" fill="white"/>
</mask>
<g mask="url(#mask41_2002_6881)">
<mask id="mask42_2002_6881" style="mask-type:luminance" maskUnits="userSpaceOnUse" x="240" y="50" width="15" height="16">
<path d="M240.471 51.2471H245.789V54.2678C247.194 51.7537 248.946 50.7838 251.385 50.7838C252.675 50.7838 253.621 50.9938 254.748 51.4736V56.1087C253.23 55.5548 252.308 55.4189 251.175 55.4189C249.635 55.4189 247.628 55.8575 245.789 58.3243V65.1029H240.471V51.2471Z" fill="white"/>
</mask>
<g mask="url(#mask42_2002_6881)">
<path d="M143.953 46.2146H322.411V89.3262H143.953V46.2146Z" fill="white"/>
</g>
</g>
<mask id="mask43_2002_6881" style="mask-type:luminance" maskUnits="userSpaceOnUse" x="257" y="55" width="20" height="5">
<path d="M257.831 55.3262H276.14V59.1994H257.831V55.3262Z" fill="white"/>
</mask>
<g mask="url(#mask43_2002_6881)">
<path d="M143.953 46.2146H322.412V89.3262H143.953V46.2146Z" fill="white"/>
</g>
<mask id="mask44_2002_6881" style="mask-type:luminance" maskUnits="userSpaceOnUse" x="279" y="50" width="19" height="16">
<path d="M279.185 50.7632H297.992V65.5826H279.185V50.7632Z" fill="white"/>
</mask>
<g mask="url(#mask44_2002_6881)">
<mask id="mask45_2002_6881" style="mask-type:luminance" maskUnits="userSpaceOnUse" x="279" y="50" width="19" height="16">
<path d="M279.293 60.4925H284.867C284.867 61.485 285.65 62.0821 288.871 62.0821C291.75 62.0821 292.466 61.6662 292.466 60.8837C292.466 60.0539 291.662 59.8192 288.807 59.5927L287.61 59.498C282.175 59.0594 279.618 58.4355 279.618 55.3962C279.618 51.8237 283.536 50.7838 288.509 50.7838C293.505 50.7838 297.235 52.0522 297.468 55.4415H291.894C291.872 54.519 290.837 54.0578 288.392 54.0578C285.998 54.0578 285.099 54.449 285.099 55.0729C285.099 55.7401 285.718 55.9728 288.439 56.1787L289.868 56.296C295.121 56.7099 297.953 57.2659 297.953 60.6305C297.953 64.5284 294.315 65.5641 288.97 65.5641C282.934 65.5641 279.275 64.1804 279.298 60.4925" fill="white"/>
</mask>
<g mask="url(#mask45_2002_6881)">
<path d="M143.953 46.2146H322.412V89.3262H143.953V46.2146Z" fill="white"/>
</g>
</g>
<mask id="mask46_2002_6881" style="mask-type:luminance" maskUnits="userSpaceOnUse" x="299" y="50" width="22" height="16">
<path d="M299.705 50.7632H320.104V65.5826H299.705V50.7632Z" fill="white"/>
</mask>
<g mask="url(#mask46_2002_6881)">
<mask id="mask47_2002_6881" style="mask-type:luminance" maskUnits="userSpaceOnUse" x="299" y="50" width="22" height="16">
<path d="M314.576 56.6873C313.953 55.1203 312.411 54.4964 310.112 54.4964C307.601 54.4964 306.013 55.1615 305.435 56.6873H314.576ZM299.839 58.1884C299.839 53.648 303.777 50.7838 309.902 50.7838C316.351 50.7838 320.08 53.7119 320.08 59.2468H305.32C305.78 61.0464 307.531 61.8536 310.245 61.8536C312.434 61.8536 314.208 61.2276 314.757 60.1939H319.965C318.86 63.7644 315.843 65.5867 309.924 65.5641C303.755 65.5641 299.814 62.6834 299.839 58.1884Z" fill="white"/>
</mask>
<g mask="url(#mask47_2002_6881)">
<path d="M143.954 46.2146H322.412V89.3262H143.954V46.2146Z" fill="white"/>
</g>
</g>
<mask id="mask48_2002_6881" style="mask-type:luminance" maskUnits="userSpaceOnUse" x="221" y="70" width="36" height="17">
<path d="M221.828 70.1292H256.646V86.6329H221.828V70.1292Z" fill="white"/>
</mask>
<g mask="url(#mask48_2002_6881)">
<mask id="mask49_2002_6881" style="mask-type:luminance" maskUnits="userSpaceOnUse" x="221" y="70" width="36" height="17">
<path d="M221.886 70.1888H225.043L230.501 84.2546L237.179 70.1888H241.207L247.908 84.2546L253.364 70.1888H256.498L250.119 86.5361H245.812L239.204 72.5156L232.592 86.5361H228.284L221.886 70.1888Z" fill="white"/>
</mask>
<g mask="url(#mask49_2002_6881)">
<path d="M143.953 46.2146H322.412V89.3262H143.953V46.2146Z" fill="white"/>
</g>
</g>
<mask id="mask50_2002_6881" style="mask-type:luminance" maskUnits="userSpaceOnUse" x="256" y="72" width="20" height="16">
<path d="M256.926 72.318H275.484V87.1374H256.926V72.318Z" fill="white"/>
</mask>
<g mask="url(#mask50_2002_6881)">
<mask id="mask51_2002_6881" style="mask-type:luminance" maskUnits="userSpaceOnUse" x="256" y="72" width="20" height="15">
<path d="M272.155 78.4645C271.6 75.975 269.574 74.8651 266.283 74.8651C262.966 74.8651 260.825 76.0162 260.27 78.4645H272.155ZM256.932 79.7329C256.932 75.1678 260.593 72.4457 266.259 72.4457C271.972 72.4457 275.448 75.2564 275.448 80.8386H260.229C260.69 83.2581 262.902 84.5491 266.516 84.5491C269.486 84.5491 271.489 83.6266 272.089 82.0597H275.246C274.417 85.1504 271.4 86.9912 266.427 86.9912C260.531 86.9912 256.936 84.2917 256.936 79.7287" fill="white"/>
</mask>
<g mask="url(#mask51_2002_6881)">
<path d="M143.953 46.2147H322.412V89.3263H143.953V46.2147Z" fill="white"/>
</g>
</g>
<mask id="mask52_2002_6881" style="mask-type:luminance" maskUnits="userSpaceOnUse" x="278" y="68" width="20" height="20">
<path d="M278.849 68H297.685V87.1374H278.849V68Z" fill="white"/>
</mask>
<g mask="url(#mask52_2002_6881)">
<mask id="mask53_2002_6881" style="mask-type:luminance" maskUnits="userSpaceOnUse" x="278" y="68" width="20" height="19">
<path d="M288.299 84.2978C291.983 84.2978 294.263 82.4982 294.263 79.7101C294.263 76.9447 291.987 75.1451 288.299 75.1451C284.359 75.1451 281.965 76.9447 281.965 79.7101C281.965 82.4982 284.359 84.2978 288.299 84.2978ZM278.925 68.0906H281.965V75.7875C283.372 73.6914 285.998 72.4456 289.268 72.4456C294.333 72.4456 297.603 75.3036 297.603 79.7101C297.603 84.1146 294.333 86.9973 289.268 86.9973C285.998 86.9973 283.372 85.7516 281.965 83.6307V86.5361H278.925V68.0906Z" fill="white"/>
</mask>
<g mask="url(#mask53_2002_6881)">
<path d="M143.953 46.2146H322.412V89.3262H143.953V46.2146Z" fill="white"/>
</g>
</g>
<mask id="mask54_2002_6881" style="mask-type:luminance" maskUnits="userSpaceOnUse" x="300" y="72" width="20" height="13">
<path d="M300.881 72.7441H319.384V84.7796H300.881V72.7441Z" fill="white"/>
</mask>
<g mask="url(#mask54_2002_6881)">
<mask id="mask55_2002_6881" style="mask-type:luminance" maskUnits="userSpaceOnUse" x="300" y="72" width="20" height="13">
<path d="M300.988 80.194L315.014 78.6929L300.988 77.1733V72.7483L319.276 75.2625V82.1296L300.988 84.619V80.194Z" fill="white"/>
</mask>
<g mask="url(#mask55_2002_6881)">
<path d="M143.953 46.2146H322.412V89.3262H143.953V46.2146Z" fill="#FF2F00"/>
</g>
</g>
<mask id="mask56_2002_6881" style="mask-type:luminance" maskUnits="userSpaceOnUse" x="146" y="72" width="19" height="13">
<path d="M146.279 72.7441H164.589V84.6684H146.279V72.7441Z" fill="white"/>
</mask>
<g mask="url(#mask56_2002_6881)">
<mask id="mask57_2002_6881" style="mask-type:luminance" maskUnits="userSpaceOnUse" x="146" y="72" width="19" height="13">
<path d="M164.568 77.1733L150.543 78.6703L164.568 80.1899V84.6149L146.281 82.1069V75.2336L164.568 72.7441V77.1733Z" fill="white"/>
</mask>
<g mask="url(#mask57_2002_6881)">
<path d="M143.953 70.092H210.517V89.3262H143.953V70.092Z" fill="#FF2F00"/>
</g>
</g>
<mask id="mask58_2002_6881" style="mask-type:luminance" maskUnits="userSpaceOnUse" x="168" y="72" width="19" height="15">
<path d="M168.116 72.4209H186.428V86.5464H168.116V72.4209Z" fill="white"/>
</mask>
<g mask="url(#mask58_2002_6881)">
<mask id="mask59_2002_6881" style="mask-type:luminance" maskUnits="userSpaceOnUse" x="168" y="72" width="19" height="15">
<path d="M168.182 72.8842H171.405V75.837C173.155 73.644 175.851 72.423 179.354 72.423C183.73 72.423 186.397 74.2 186.397 79.5701V86.5135H183.171V80.6573C183.171 76.6421 181.605 75.1225 177.895 75.1225C174.05 75.1225 171.399 77.2207 171.399 80.7727V86.5135H168.182V72.8842Z" fill="white"/>
</mask>
<g mask="url(#mask59_2002_6881)">
<path d="M143.954 70.092H210.517V89.3262H143.954V70.092Z" fill="white"/>
</g>
</g>
<mask id="mask60_2002_6881" style="mask-type:luminance" maskUnits="userSpaceOnUse" x="190" y="72" width="19" height="15">
<path d="M190.062 72.4209H208.191V86.9973H190.062V72.4209Z" fill="white"/>
</mask>
<g mask="url(#mask60_2002_6881)">
<mask id="mask61_2002_6881" style="mask-type:luminance" maskUnits="userSpaceOnUse" x="190" y="72" width="19" height="15">
<path d="M197.336 84.7591C199.572 84.7591 202.194 84.024 204.96 82.7082V80.9086C201.871 80.1488 200.308 79.8914 197.822 79.8914C194.827 79.8914 193.443 80.5173 193.443 82.1996C193.443 83.884 194.78 84.7591 197.336 84.7591ZM199.708 75.1225C197.359 75.1225 194.916 75.6784 191.67 76.5309L191.208 73.6955C194.367 72.8616 197.429 72.423 200.144 72.423C205.764 72.423 208.158 74.2926 208.158 78.7403V86.5135H204.954V84.8538C202.422 86.2149 199.428 86.9973 196.573 86.9973C192.382 86.9973 190.099 85.3604 190.099 82.4097C190.099 79.2716 192.843 77.6119 197.723 77.6119C199.936 77.6119 202.422 77.9805 204.954 78.6518V78.3079C204.954 75.7711 203.134 75.1225 199.701 75.1225" fill="white"/>
</mask>
<g mask="url(#mask61_2002_6881)">
<path d="M143.953 70.092H210.517V89.3262H143.953V70.092Z" fill="white"/>
</g>
</g>
<mask id="mask62_2002_6881" style="mask-type:luminance" maskUnits="userSpaceOnUse" x="0" y="96" width="6" height="8">
<path d="M0.555176 96.7451H5.57326V97.6408H0.555176V96.7451ZM0.555176 97.6408H2.03798V99.6135H0.555176V97.6408ZM0.555176 99.6135H5.02004V100.509H0.555176V99.6135ZM0.555176 100.509H2.03798V103.505H0.555176V100.509Z" fill="white"/>
</mask>
<g mask="url(#mask62_2002_6881)">
<path d="M0.555176 96.7451H5.57326V103.515H0.555176V96.7451Z" fill="white"/>
</g>
<mask id="mask63_2002_6881" style="mask-type:luminance" maskUnits="userSpaceOnUse" x="1" y="58" width="7" height="7">
<path d="M1.00342 58.3551H7.0827V64.7383H1.00342V58.3551Z" fill="white"/>
</mask>
<g mask="url(#mask63_2002_6881)">
<mask id="mask64_2002_6881" style="mask-type:luminance" maskUnits="userSpaceOnUse" x="1" y="58" width="7" height="7">
<path d="M4.84307 58.3551C2.60345 58.3592 1.00342 59.6771 1.00342 61.6579C1.00342 62.6957 1.50523 64.7383 4.53253 64.7383C5.39424 64.7383 6.23539 64.6127 7.06831 64.3986V61.5714H5.71301V63.8467C5.4909 63.9044 5.16185 63.9826 4.74641 63.9826C4.34949 63.9826 3.73046 63.9044 3.24716 63.5482C2.48211 62.9757 2.41424 61.8906 2.41424 61.4932C2.41424 59.7882 3.50835 59.1108 4.68883 59.1108C5.19064 59.1108 5.68422 59.2364 6.13873 59.4588C6.19837 59.4876 6.44722 59.6544 6.47806 59.6544C6.49657 59.6544 6.49657 59.6544 6.53565 59.6338L6.71869 59.5267C6.77627 59.5 6.76804 59.4794 6.76804 59.432L6.73925 58.8102C6.72897 58.6949 6.72897 58.6557 6.62408 58.6166C6.58295 58.5981 5.79528 58.3572 4.86364 58.3551H4.84307Z" fill="white"/>
</mask>
<g mask="url(#mask64_2002_6881)">
<path d="M1.00342 58.3551H7.06419V64.7383H1.00342V58.3551Z" fill="white"/>
</g>
</g>
<mask id="mask65_2002_6881" style="mask-type:luminance" maskUnits="userSpaceOnUse" x="9" y="58" width="8" height="7">
<path d="M9.09814 58.3655H16.181V64.7672H9.09814V58.3655Z" fill="white"/>
</mask>
<g mask="url(#mask65_2002_6881)">
<mask id="mask66_2002_6881" style="mask-type:luminance" maskUnits="userSpaceOnUse" x="9" y="58" width="8" height="7">
<path d="M15.1157 59.1006C15.5229 59.43 16.181 60.1672 16.181 61.5036C16.181 63.7027 14.3815 64.7487 12.5326 64.7487C10.0565 64.7487 9.11865 63.0438 9.11865 61.59C9.11865 60.4946 9.59167 59.7307 10.2971 59.1685C11.1506 58.4911 12.0205 58.3655 12.8822 58.3655C13.1146 58.3655 14.2848 58.4128 15.1157 59.1006ZM10.5315 61.4644C10.5315 63.052 11.5763 63.9827 12.7465 63.9827C13.5115 63.9827 14.7784 63.4803 14.7784 61.658C14.7784 60.0498 13.7316 59.1212 12.5717 59.1212C11.2081 59.1212 10.5315 60.2351 10.5315 61.4644Z" fill="white"/>
</mask>
<g mask="url(#mask66_2002_6881)">
<path d="M9.11865 58.3655H16.181V64.7467H9.11865V58.3655Z" fill="white"/>
</g>
</g>
<mask id="mask67_2002_6881" style="mask-type:luminance" maskUnits="userSpaceOnUse" x="10" y="96" width="9" height="8">
<path d="M10.9307 96.6174H18.7149V103.664H10.9307V96.6174Z" fill="white"/>
</mask>
<g mask="url(#mask67_2002_6881)">
<mask id="mask68_2002_6881" style="mask-type:luminance" maskUnits="userSpaceOnUse" x="10" y="96" width="9" height="8">
<path d="M17.5344 97.4287C17.9807 97.7911 18.7046 98.6004 18.7046 100.073C18.7046 102.494 16.7241 103.645 14.6901 103.645C11.9631 103.645 10.9307 101.767 10.9307 100.169C10.9307 98.9628 11.453 98.1206 12.2304 97.5028C13.1662 96.7575 14.1245 96.6174 15.0726 96.6174C15.3297 96.6174 16.6171 96.671 17.5344 97.4287ZM12.4854 100.029C12.4854 101.78 13.6351 102.803 14.9246 102.803C15.7657 102.803 17.1621 102.247 17.1621 100.244C17.1621 98.4727 16.0104 97.4493 14.7333 97.4493C13.232 97.4493 12.4854 98.6765 12.4854 100.029Z" fill="white"/>
</mask>
<g mask="url(#mask68_2002_6881)">
<path d="M10.9307 96.6174H18.6964V103.645H10.9307V96.6174Z" fill="white"/>
</g>
</g>
<mask id="mask69_2002_6881" style="mask-type:luminance" maskUnits="userSpaceOnUse" x="18" y="58" width="7" height="7">
<path d="M18.396 58.4333H24.1215V64.7569H18.396V58.4333Z" fill="white"/>
</mask>
<g mask="url(#mask69_2002_6881)">
<mask id="mask70_2002_6881" style="mask-type:luminance" maskUnits="userSpaceOnUse" x="18" y="58" width="7" height="7">
<path d="M19.739 64.623H18.396V58.4807C18.6757 58.4807 20.4649 58.4333 20.6685 58.4333C21.7236 58.4333 22.283 58.5013 22.7786 58.9172C23.2228 59.2941 23.3277 59.7512 23.3277 60.1383C23.3277 60.8631 22.904 61.4932 21.8881 61.7835C22.4495 62.986 23.0377 63.7417 23.4161 63.9538C23.6876 64.1103 23.9385 64.1103 24.103 64.1103L24.1215 64.1577L24.0352 64.5448C24.0249 64.5839 24.0167 64.6127 23.9858 64.6333C23.8892 64.691 23.5519 64.7383 23.2804 64.7383C21.9745 64.7383 21.3945 63.7809 20.5513 62.0265C20.2613 62.0553 20.0104 62.0553 19.739 62.0368V64.623ZM19.739 61.3388C20.4464 61.3573 20.6685 61.3676 21.0161 61.3099C21.6557 61.2029 21.9169 60.7766 21.9169 60.2062C21.9169 59.5659 21.5878 59.1787 20.5328 59.1787H19.739V61.3388Z" fill="white"/>
</mask>
<g mask="url(#mask70_2002_6881)">
<path d="M18.396 58.4333H24.1215V64.7383H18.396V58.4333Z" fill="white"/>
</g>
</g>
<mask id="mask71_2002_6881" style="mask-type:luminance" maskUnits="userSpaceOnUse" x="0" y="68" width="28" height="27">
<path d="M0.0473633 68.2615H27.7538V94.0703H0.0473633V68.2615Z" fill="white"/>
</mask>
<g mask="url(#mask71_2002_6881)">
<mask id="mask72_2002_6881" style="mask-type:luminance" maskUnits="userSpaceOnUse" x="0" y="68" width="28" height="27">
<path d="M26.999 68.2615C26.0859 69.7749 26.2031 71.9246 26.2031 73.9137C26.2031 78.6888 26.0057 83.6657 26.5219 88.4428C26.7214 90.2322 26.8797 92.0627 27.7538 93.6544H21.911C22.6267 91.6653 22.6267 88.7208 22.6267 86.4908V73.2775C22.6267 72.8801 22.6267 72.4023 22.349 72.4023C22.0693 72.4023 21.9501 72.6803 21.8308 72.9974L12.9278 94.0539L5.37394 74.5109C4.93794 73.3578 4.65824 72.4023 4.30039 72.4023C3.94255 72.4023 3.94255 73.1169 3.94255 73.714L3.90347 86.6493C3.90347 89.7545 3.90347 92.3428 4.77958 93.6565H0.0473633L0.40521 93.1376C1.87567 91.029 2.03609 84.7405 2.03609 80.4411V70.4915C2.03609 69.4166 1.99496 68.8586 1.0407 68.2615H5.97035C6.44748 68.2615 7.04389 68.3418 7.20225 68.8586L13.0862 86.2128C13.2856 86.8099 13.4049 87.4874 13.7237 87.4874C14.0795 87.4874 14.1988 87.0879 14.4394 86.5319L21.3146 69.9335C21.6724 69.0975 21.9501 68.2615 22.9455 68.2615H26.999Z" fill="white"/>
</mask>
<g mask="url(#mask72_2002_6881)">
<path d="M0.0473633 68.2615H27.7538V94.0518H0.0473633V68.2615Z" fill="white"/>
</g>
</g>
<mask id="mask73_2002_6881" style="mask-type:luminance" maskUnits="userSpaceOnUse" x="25" y="96" width="7" height="8">
<path d="M25.043 96.7451H31.1531V103.651H25.043V96.7451Z" fill="white"/>
</mask>
<g mask="url(#mask73_2002_6881)">
<mask id="mask74_2002_6881" style="mask-type:luminance" maskUnits="userSpaceOnUse" x="25" y="96" width="7" height="8">
<path d="M26.5237 96.7451V100.777C26.5237 101.535 26.5237 101.843 26.8199 102.173C27.0543 102.43 27.5027 102.622 28.1525 102.622C28.8127 102.622 29.3885 102.418 29.7176 102.045C30.059 101.673 30.059 101.17 30.059 100.297V96.7451H31.1346L31.0503 100.264C31.0174 101.491 30.9536 102.259 30.2832 102.857C29.4194 103.635 28.2163 103.635 27.7906 103.635C27.0029 103.635 26.2132 103.518 25.627 102.962C25.0944 102.461 25.043 101.843 25.043 100.841V96.7451H26.5237Z" fill="white"/>
</mask>
<g mask="url(#mask74_2002_6881)">
<path d="M25.043 96.7451H31.1346V103.631H25.043V96.7451Z" fill="white"/>
</g>
</g>
<mask id="mask75_2002_6881" style="mask-type:luminance" maskUnits="userSpaceOnUse" x="25" y="58" width="8" height="7">
<path d="M25.7959 58.4128H32.0644V64.6314H25.7959V58.4128Z" fill="white"/>
</mask>
<g mask="url(#mask75_2002_6881)">
<mask id="mask76_2002_6881" style="mask-type:luminance" maskUnits="userSpaceOnUse" x="25" y="58" width="8" height="7">
<path d="M25.7959 58.4808C26.3944 58.4808 27.2561 58.4128 27.9923 58.4128H28.3872C29.3641 58.4128 32.0644 58.4128 32.0644 61.3388C32.0644 62.772 31.3775 63.6739 30.633 64.1083C29.761 64.6231 28.272 64.6231 27.7702 64.6231H25.7959V58.4808ZM27.1409 63.8571H28.1754C29.4916 63.8571 30.6433 63.5956 30.6433 61.4933C30.6433 60.0601 30.1785 59.1685 28.2535 59.1685C27.9039 59.1685 27.5769 59.1788 27.1409 59.1891V63.8571Z" fill="white"/>
</mask>
<g mask="url(#mask76_2002_6881)">
<path d="M25.7959 58.4128H32.0644V64.6314H25.7959V58.4128Z" fill="white"/>
</g>
</g>
<mask id="mask77_2002_6881" style="mask-type:luminance" maskUnits="userSpaceOnUse" x="33" y="58" width="8" height="7">
<path d="M33.8247 58.3655H40.887V64.7672H33.8247V58.3655Z" fill="white"/>
</mask>
<g mask="url(#mask77_2002_6881)">
<mask id="mask78_2002_6881" style="mask-type:luminance" maskUnits="userSpaceOnUse" x="33" y="58" width="8" height="7">
<path d="M39.8217 59.1006C40.2289 59.43 40.887 60.1672 40.887 61.5036C40.887 63.7027 39.0875 64.7487 37.2386 64.7487C34.7625 64.7487 33.8247 63.0438 33.8247 61.59C33.8247 60.4946 34.2977 59.7307 35.0052 59.1685C35.8566 58.4911 36.7266 58.3655 37.5883 58.3655C37.8207 58.3655 38.9909 58.4128 39.8217 59.1006ZM35.2376 61.4644C35.2376 63.052 36.2823 63.9827 37.4525 63.9827C38.2155 63.9827 39.4844 63.4803 39.4844 61.658C39.4844 60.0498 38.4397 59.1212 37.2777 59.1212C35.9142 59.1212 35.2376 60.2351 35.2376 61.4644Z" fill="white"/>
</mask>
<g mask="url(#mask78_2002_6881)">
<path d="M33.8247 58.3655H40.887V64.7467H33.8247V58.3655Z" fill="white"/>
</g>
</g>
<mask id="mask79_2002_6881" style="mask-type:luminance" maskUnits="userSpaceOnUse" x="37" y="96" width="8" height="8">
<path d="M37.8452 96.7451H44.2741V103.676H37.8452V96.7451Z" fill="white"/>
</mask>
<g mask="url(#mask79_2002_6881)">
<mask id="mask80_2002_6881" style="mask-type:luminance" maskUnits="userSpaceOnUse" x="37" y="96" width="8" height="8">
<path d="M37.8761 96.7451L37.8452 103.505H38.9085L38.8242 98.6663L43.3713 103.655L44.2453 103.433L44.2556 96.7451H43.1903L43.2767 101.502L38.9517 96.7451H37.8761Z" fill="white"/>
</mask>
<g mask="url(#mask80_2002_6881)">
<path d="M37.8452 96.7451H44.2536V103.655H37.8452V96.7451Z" fill="white"/>
</g>
</g>
<mask id="mask81_2002_6881" style="mask-type:luminance" maskUnits="userSpaceOnUse" x="43" y="58" width="6" height="7">
<path d="M43.0732 58.4807H48.9078V64.7775H43.0732V58.4807Z" fill="white"/>
</mask>
<g mask="url(#mask81_2002_6881)">
<mask id="mask82_2002_6881" style="mask-type:luminance" maskUnits="userSpaceOnUse" x="43" y="58" width="6" height="7">
<path d="M44.0789 58.4807L48.007 62.8007L47.9289 58.4807H48.8975L48.8852 64.5551L48.0934 64.7569L43.9637 60.2248L44.0398 64.623H43.0732L43.102 58.4807H44.0789Z" fill="white"/>
</mask>
<g mask="url(#mask82_2002_6881)">
<path d="M43.0732 58.4807H48.8893V64.7569H43.0732V58.4807Z" fill="white"/>
</g>
</g>
<mask id="mask83_2002_6881" style="mask-type:luminance" maskUnits="userSpaceOnUse" x="28" y="67" width="26" height="28">
<path d="M28.3276 67.6252H53.0129V94.3113H28.3276V67.6252Z" fill="white"/>
</mask>
<g mask="url(#mask83_2002_6881)">
<mask id="mask84_2002_6881" style="mask-type:luminance" maskUnits="userSpaceOnUse" x="28" y="67" width="25" height="28">
<path d="M48.8606 81.5551C48.8606 87.2877 46.3947 92.5405 40.6712 92.5405C34.2711 92.5405 32.4819 85.6157 32.4819 80.3629C32.4819 74.6303 34.9477 69.3775 40.6712 69.3775C47.0714 69.3775 48.8606 76.3023 48.8606 81.5551ZM52.9943 80.4411C52.9943 73.3557 49.3377 67.6252 40.99 67.6252C32.7205 67.6252 28.3481 73.9138 28.3481 81.4769C28.3481 88.5602 32.0048 94.2928 40.3525 94.2928C48.622 94.2928 52.9943 88.0042 52.9943 80.4411Z" fill="white"/>
</mask>
<g mask="url(#mask84_2002_6881)">
<path d="M28.3481 67.6252H52.9943V94.2928H28.3481V67.6252Z" fill="white"/>
</g>
</g>
<mask id="mask85_2002_6881" style="mask-type:luminance" maskUnits="userSpaceOnUse" x="51" y="96" width="8" height="8">
<path d="M51.104 96.671H58.0244V103.522H51.104V96.671Z" fill="white"/>
</mask>
<g mask="url(#mask85_2002_6881)">
<mask id="mask86_2002_6881" style="mask-type:luminance" maskUnits="userSpaceOnUse" x="51" y="96" width="8" height="8">
<path d="M51.104 96.7451C51.7642 96.7451 52.7123 96.671 53.5226 96.671H53.9586C55.0341 96.671 58.0059 96.671 58.0059 99.8915C58.0059 101.469 57.2491 102.461 56.4306 102.941C55.4701 103.505 53.831 103.505 53.2758 103.505H51.104V96.7451ZM52.5847 102.665H53.7241C55.1719 102.665 56.4409 102.377 56.4409 100.06C56.4409 98.483 55.9288 97.5029 53.8084 97.5029C53.4259 97.5029 53.0639 97.5132 52.5847 97.5235V102.665Z" fill="white"/>
</mask>
<g mask="url(#mask86_2002_6881)">
<path d="M51.104 96.671H58.0059V103.501H51.104V96.671Z" fill="white"/>
</g>
</g>
<mask id="mask87_2002_6881" style="mask-type:luminance" maskUnits="userSpaceOnUse" x="54" y="58" width="7" height="7">
<path d="M54.1191 58.4807H60.5871V64.6416H54.1191V58.4807Z" fill="white"/>
</mask>
<g mask="url(#mask87_2002_6881)">
<mask id="mask88_2002_6881" style="mask-type:luminance" maskUnits="userSpaceOnUse" x="54" y="58" width="7" height="7">
<path d="M58.0472 58.4807L60.5727 64.623H59.092L58.4133 62.7925H56.0338L55.2996 64.623H54.1191L57.0498 58.4807H58.0472ZM58.1336 62.0656L57.2719 59.7409L56.3341 62.0656H58.1336Z" fill="white"/>
</mask>
<g mask="url(#mask88_2002_6881)">
<path d="M54.1191 58.4807H60.5666V64.623H54.1191V58.4807Z" fill="white"/>
</g>
</g>
<mask id="mask89_2002_6881" style="mask-type:luminance" maskUnits="userSpaceOnUse" x="62" y="58" width="7" height="7">
<path d="M62.438 58.4807H68.2746V64.7775H62.438V58.4807Z" fill="white"/>
</mask>
<g mask="url(#mask89_2002_6881)">
<mask id="mask90_2002_6881" style="mask-type:luminance" maskUnits="userSpaceOnUse" x="62" y="58" width="7" height="7">
<path d="M63.4437 58.4807L67.3717 62.8007L67.2936 58.4807H68.2623L68.252 64.5551L67.4602 64.7569L63.3285 60.2248L63.4046 64.623H62.438L62.4668 58.4807H63.4437Z" fill="white"/>
</mask>
<g mask="url(#mask90_2002_6881)">
<path d="M62.438 58.4807H68.254V64.7569H62.438V58.4807Z" fill="white"/>
</g>
</g>
<mask id="mask91_2002_6881" style="mask-type:luminance" maskUnits="userSpaceOnUse" x="62" y="96" width="8" height="8">
<path d="M62.7715 96.7451H69.8955V103.524H62.7715V96.7451Z" fill="white"/>
</mask>
<g mask="url(#mask91_2002_6881)">
<mask id="mask92_2002_6881" style="mask-type:luminance" maskUnits="userSpaceOnUse" x="62" y="96" width="8" height="8">
<path d="M67.0965 96.7451L69.877 103.505H68.2461L67.5016 101.491H64.8815L64.0712 103.505H62.7715L66.0003 96.7451H67.0965ZM67.1932 100.692L66.2451 98.1309L65.2106 100.692H67.1932Z" fill="white"/>
</mask>
<g mask="url(#mask92_2002_6881)">
<path d="M62.7715 96.7451H69.875V103.503H62.7715V96.7451Z" fill="white"/>
</g>
</g>
<mask id="mask93_2002_6881" style="mask-type:luminance" maskUnits="userSpaceOnUse" x="54" y="67" width="26" height="28">
<path d="M54.4521 67.6252H79.1374V94.3113H54.4521V67.6252Z" fill="white"/>
</mask>
<g mask="url(#mask93_2002_6881)">
<mask id="mask94_2002_6881" style="mask-type:luminance" maskUnits="userSpaceOnUse" x="54" y="67" width="26" height="28">
<path d="M74.9851 81.5551C74.9851 87.2877 72.5192 92.5405 66.7958 92.5405C60.3956 92.5405 58.6064 85.6157 58.6064 80.3629C58.6064 74.6303 61.0723 69.3775 66.7958 69.3775C73.1959 69.3775 74.9851 76.3023 74.9851 81.5551ZM79.1188 80.4411C79.1188 73.3557 75.4622 67.6252 67.1125 67.6252C58.845 67.6252 54.4727 73.9138 54.4727 81.4769C54.4727 88.5602 58.1293 94.2928 66.477 94.2928C74.7465 94.2928 79.1188 88.0042 79.1188 80.4411Z" fill="white"/>
</mask>
<g mask="url(#mask94_2002_6881)">
<path d="M54.4727 67.6252H79.1188V94.2928H54.4727V67.6252Z" fill="white"/>
</g>
</g>
<mask id="mask95_2002_6881" style="mask-type:luminance" maskUnits="userSpaceOnUse" x="70" y="58" width="8" height="7">
<path d="M70.9419 58.4128H77.2104V64.6314H70.9419V58.4128Z" fill="white"/>
</mask>
<g mask="url(#mask95_2002_6881)">
<mask id="mask96_2002_6881" style="mask-type:luminance" maskUnits="userSpaceOnUse" x="70" y="58" width="8" height="7">
<path d="M70.9419 58.4808C71.5404 58.4808 72.4021 58.4128 73.1363 58.4128H73.5332C74.5101 58.4128 77.2083 58.4128 77.2083 61.3388C77.2083 62.772 76.5235 63.6739 75.7769 64.1083C74.907 64.6231 73.418 64.6231 72.9142 64.6231H70.9419V58.4808ZM72.2869 63.8571H73.3214C74.6376 63.8571 75.7872 63.5956 75.7872 61.4933C75.7872 60.0601 75.3224 59.1685 73.3995 59.1685C73.0499 59.1685 72.7208 59.1788 72.2869 59.1891V63.8571Z" fill="white"/>
</mask>
<g mask="url(#mask96_2002_6881)">
<path d="M70.9419 58.4128H77.2104V64.6314H70.9419V58.4128Z" fill="white"/>
</g>
</g>
<mask id="mask97_2002_6881" style="mask-type:luminance" maskUnits="userSpaceOnUse" x="74" y="96" width="8" height="8">
<path d="M74.3911 96.7451H81.1758V97.6408H74.3911V96.7451ZM77.0338 97.6408H78.5249V103.505H77.0338V97.6408Z" fill="white"/>
</mask>
<g mask="url(#mask97_2002_6881)">
<path d="M74.3911 96.7451H81.1758V103.499H74.3911V96.7451Z" fill="white"/>
</g>
<mask id="mask98_2002_6881" style="mask-type:luminance" maskUnits="userSpaceOnUse" x="83" y="58" width="6" height="7">
<path d="M83.6909 58.4333H88.6452V64.6333H83.6909V58.4333Z" fill="white"/>
</mask>
<g mask="url(#mask98_2002_6881)">
<mask id="mask99_2002_6881" style="mask-type:luminance" maskUnits="userSpaceOnUse" x="83" y="58" width="6" height="7">
<path d="M83.6909 58.4807C84.3202 58.4807 85.3465 58.4333 85.9758 58.4333C86.6709 58.4333 87.3105 58.4807 87.7753 58.8308C88.0447 59.0346 88.2483 59.3826 88.2483 59.7779C88.2483 60.6222 87.4833 60.9619 87.2221 61.0772C87.4833 61.1349 87.9871 61.242 88.345 61.7547C88.5877 62.0944 88.6452 62.4527 88.6452 62.7328C88.6452 63.5173 88.1517 63.9826 87.8905 64.1659C87.619 64.3698 86.9527 64.623 86.0827 64.623H83.6909V58.4807ZM85.0174 60.9619H85.4719C86.1197 60.9619 86.8457 60.9619 86.8457 60.0209C86.8457 59.5576 86.6627 59.1499 85.8483 59.1499C85.655 59.1499 85.3938 59.1602 85.0174 59.1602V60.9619ZM85.0174 63.8859C85.9367 63.8941 86.3028 63.8941 86.5948 63.7891C87.0678 63.6141 87.2426 63.2455 87.2426 62.8007C87.2426 61.697 86.3336 61.6682 85.4822 61.6682H85.0174V63.8859Z" fill="white"/>
</mask>
<g mask="url(#mask99_2002_6881)">
<path d="M83.6909 58.4333H88.6452V64.6127H83.6909V58.4333Z" fill="white"/>
</g>
</g>
<mask id="mask100_2002_6881" style="mask-type:luminance" maskUnits="userSpaceOnUse" x="87" y="96" width="2" height="8">
<path d="M87.4136 96.7451H88.8943V103.507H87.4136V96.7451Z" fill="white"/>
</mask>
<g mask="url(#mask100_2002_6881)">
<path d="M87.4136 96.7451H88.8943V103.509H87.4136V96.7451Z" fill="white"/>
</g>
<mask id="mask101_2002_6881" style="mask-type:luminance" maskUnits="userSpaceOnUse" x="90" y="58" width="6" height="7">
<path d="M90.918 58.4807H95.3684V59.2364H90.918V58.4807ZM90.918 59.2364H92.263V61.0093H90.918V59.2364ZM90.918 61.0093H95.0476V61.7753H90.918V61.0093ZM90.918 61.7753H92.263V63.8097H90.918V61.7753ZM90.918 63.8097H95.4754V64.623H90.918V63.8097Z" fill="white"/>
</mask>
<g mask="url(#mask101_2002_6881)">
<path d="M90.918 58.4807H95.4754V64.6292H90.918V58.4807Z" fill="white"/>
</g>
<mask id="mask102_2002_6881" style="mask-type:luminance" maskUnits="userSpaceOnUse" x="79" y="67" width="22" height="27">
<path d="M79.6724 67.8641H100.026V93.6627H79.6724V67.8641Z" fill="white"/>
</mask>
<g mask="url(#mask102_2002_6881)">
<mask id="mask103_2002_6881" style="mask-type:luminance" maskUnits="userSpaceOnUse" x="79" y="67" width="22" height="27">
<path d="M84.3244 71.3667C84.3244 70.7304 84.3634 70.053 84.4025 69.4579H86.272C89.8093 69.5361 92.0757 70.0138 92.0757 73.992C92.0757 77.7746 89.9677 79.844 86.1136 79.844C85.5151 79.844 84.9187 79.8049 84.3244 79.7246V71.3667ZM89.7702 80.402C92.6309 79.2469 95.6541 76.8583 95.6541 73.1993C95.6541 70.0921 93.5461 67.8641 89.4905 67.8641C86.3912 67.8641 83.2097 68.2615 79.8719 68.2615C80.7459 69.6144 80.7459 71.6858 80.7459 73.4752V88.202C80.7459 89.9131 80.8241 91.826 79.6724 93.6545H85.1964C84.3244 92.3016 84.3244 90.2322 84.3244 88.4429V81.2772C86.6298 81.4769 86.9075 82.1544 88.5753 84.5409L93.4268 91.4677C94.3009 92.7402 95.0557 93.6545 96.7647 93.6545H100.026C98.3956 92.1431 97.8382 91.5068 96.6865 89.9543L89.7702 80.402Z" fill="white"/>
</mask>
<g mask="url(#mask103_2002_6881)">
<path d="M79.6724 67.8641H100.026V93.6627H79.6724V67.8641Z" fill="white"/>
</g>
</g>
<mask id="mask104_2002_6881" style="mask-type:luminance" maskUnits="userSpaceOnUse" x="95" y="96" width="9" height="8">
<path d="M95.1997 96.6174H103.004V103.664H95.1997V96.6174Z" fill="white"/>
</mask>
<g mask="url(#mask104_2002_6881)">
<mask id="mask105_2002_6881" style="mask-type:luminance" maskUnits="userSpaceOnUse" x="95" y="96" width="8" height="8">
<path d="M101.822 97.4287C102.27 97.7911 102.994 98.6004 102.994 100.073C102.994 102.494 101.014 103.645 98.9798 103.645C96.2527 103.645 95.2183 101.767 95.2183 100.169C95.2183 98.9628 95.7406 98.1206 96.5201 97.5028C97.4558 96.7575 98.4142 96.6174 99.3623 96.6174C99.6173 96.6174 100.907 96.671 101.822 97.4287ZM96.7751 100.029C96.7751 101.78 97.9247 102.803 99.2142 102.803C100.055 102.803 101.45 102.247 101.45 100.244C101.45 98.4727 100.3 97.4493 99.0209 97.4493C97.5196 97.4493 96.7751 98.6765 96.7751 100.029Z" fill="white"/>
</mask>
<g mask="url(#mask105_2002_6881)">
<path d="M95.2183 96.6174H103.005V103.645H95.2183V96.6174Z" fill="white"/>
</g>
</g>
<mask id="mask106_2002_6881" style="mask-type:luminance" maskUnits="userSpaceOnUse" x="96" y="58" width="7" height="7">
<path d="M96.625 58.4807H102.789V59.2961H96.625V58.4807ZM99.025 59.2961H100.378V64.623H99.025V59.2961Z" fill="white"/>
</mask>
<g mask="url(#mask106_2002_6881)">
<path d="M96.625 58.4807H102.778V64.623H96.625V58.4807Z" fill="white"/>
</g>
<mask id="mask107_2002_6881" style="mask-type:luminance" maskUnits="userSpaceOnUse" x="103" y="58" width="7" height="7">
<path d="M103.494 58.4807H109.655V59.2961H103.494V58.4807ZM105.892 59.2961H107.247V64.623H105.892V59.2961Z" fill="white"/>
</mask>
<g mask="url(#mask107_2002_6881)">
<path d="M103.494 58.4807H109.647V64.623H103.494V58.4807Z" fill="white"/>
</g>
<mask id="mask108_2002_6881" style="mask-type:luminance" maskUnits="userSpaceOnUse" x="100" y="68" width="17" height="26">
<path d="M100.382 68.2615H116.424V93.6606H100.382V68.2615Z" fill="white"/>
</mask>
<g mask="url(#mask108_2002_6881)">
<mask id="mask109_2002_6881" style="mask-type:luminance" maskUnits="userSpaceOnUse" x="100" y="68" width="17" height="26">
<path d="M104.954 92.0627H109.526C111.992 92.0627 114.534 91.4656 116.403 89.7956L115.69 93.4567C114.614 93.537 113.304 93.6544 111.872 93.6544H100.382C101.258 92.3036 101.376 90.2322 101.376 88.4428V73.4751C101.376 71.6837 101.376 69.6143 100.502 68.2615H114.375L114.534 71.3275C113.143 70.1332 110.996 69.8552 108.652 69.8552H104.954V79.3662C108.016 79.3662 111.235 79.3662 114.297 79.0883C112.905 81.3553 108.413 81.3553 105.947 81.3553H104.954V92.0627Z" fill="white"/>
</mask>
<g mask="url(#mask109_2002_6881)">
<path d="M100.382 68.2615H116.403V93.6606H100.382V68.2615Z" fill="white"/>
</g>
</g>
<mask id="mask110_2002_6881" style="mask-type:luminance" maskUnits="userSpaceOnUse" x="108" y="96" width="8" height="8">
<path d="M108.814 96.7451H115.245V103.676H108.814V96.7451Z" fill="white"/>
</mask>
<g mask="url(#mask110_2002_6881)">
<mask id="mask111_2002_6881" style="mask-type:luminance" maskUnits="userSpaceOnUse" x="108" y="96" width="8" height="8">
<path d="M108.847 96.7451L108.814 103.505H109.88L109.795 98.6663L114.343 103.655L115.217 103.433L115.227 96.7451H114.162L114.248 101.502L109.923 96.7451H108.847Z" fill="white"/>
</mask>
<g mask="url(#mask111_2002_6881)">
<path d="M108.814 96.7451H115.225V103.655H108.814V96.7451Z" fill="white"/>
</g>
</g>
<mask id="mask112_2002_6881" style="mask-type:luminance" maskUnits="userSpaceOnUse" x="110" y="58" width="7" height="7">
<path d="M110.653 58.4807H116.609V64.6416H110.653V58.4807Z" fill="white"/>
</mask>
<g mask="url(#mask112_2002_6881)">
<mask id="mask113_2002_6881" style="mask-type:luminance" maskUnits="userSpaceOnUse" x="110" y="58" width="7" height="7">
<path d="M110.653 58.4807L112.868 61.9483V64.623H114.213V61.9112L116.592 58.4807H115.295L113.795 61.0958L112.259 58.4807H110.653Z" fill="white"/>
</mask>
<g mask="url(#mask113_2002_6881)">
<path d="M110.653 58.4807H116.588V64.623H110.653V58.4807Z" fill="white"/>
</g>
</g>
</svg>
